<svg width="58" height="58" viewBox="0 0 58 58" fill="none" xmlns="http://www.w3.org/2000/svg">
<path d="M23.3924 29.3592C22.8305 26.6119 22.2437 23.9514 21.6913 21.2835C21.6298 20.9866 21.6722 20.4429 21.8278 20.3723C22.1361 20.2328 22.6138 20.2254 22.9226 20.3708C25.0624 21.3783 27.1664 22.4603 29.303 23.4749C30.5988 24.0902 31.9583 24.5778 33.2306 25.2349C33.5539 25.4018 33.6538 25.9961 33.8563 26.394C33.5517 26.5014 33.1683 26.7834 32.9549 26.6886C31.2033 25.9102 29.4781 25.0725 27.7557 24.2309C26.5768 23.6549 25.4383 22.9922 24.2378 22.467C23.4617 22.1274 23.0339 22.4783 23.2582 23.3436C23.9046 25.838 24.58 28.3247 25.2342 30.817C25.3192 31.141 25.4251 31.491 25.3788 31.809C25.3348 32.111 25.1037 32.3867 24.9549 32.674C24.6378 32.3918 24.1764 32.1684 24.0333 31.8152C23.7273 31.0604 23.5861 30.2383 23.3924 29.3592Z" fill="#FFFF00"/>
<path d="M30.7033 33.3902C30.3652 33.439 29.8018 33.4862 29.7567 33.3543C29.3951 32.2969 29.0501 31.2194 28.8695 30.1194C28.768 29.5012 29.1032 29.0428 29.9017 29.3863C31.0512 29.881 32.2308 30.3077 33.3713 30.821C33.5375 30.8958 33.6081 31.287 33.6173 31.5364C33.6201 31.6144 33.2526 31.8103 33.095 31.7754C32.3408 31.6082 31.6011 31.3782 30.8548 31.1757C30.7289 31.1416 30.596 31.1334 30.4663 31.1132C30.4623 31.3667 30.4273 31.6246 30.461 31.8728C30.5263 32.3532 30.6303 32.8283 30.7033 33.3902Z" fill="#FFFF00"/>
<path d="M33.5086 38.7463C33.2449 38.7582 32.943 38.7117 32.9372 38.6398C32.8372 37.4 32.71 36.155 32.7544 34.9163C32.7635 34.6608 33.6277 34.1334 33.781 34.2299C34.5994 34.7449 35.3464 35.388 36.0457 36.0617C36.1894 36.2 36.0249 36.6571 36.0024 36.9673C35.7309 36.9297 35.4438 36.9331 35.1934 36.8396C35.0315 36.7792 34.9454 36.5399 34.7862 36.4468C34.5226 36.2927 34.2275 36.1917 33.9457 36.0684C33.9921 36.3877 33.9446 36.7668 34.1024 37.0154C34.5963 37.7934 34.2769 38.2703 33.5086 38.7463Z" fill="#FFFF00"/>
</svg>
