<svg width="68" height="68" viewBox="0 0 68 68" fill="none" xmlns="http://www.w3.org/2000/svg">
<path d="M40.0007 20.0923C40.0905 19.6816 40.1661 19.3997 40.2727 19.13C40.4866 18.5889 40.5276 17.9713 41.0394 17.5604C41.2433 17.3966 41.3639 17.1296 41.5224 16.9095C41.7326 17.2255 42.1274 17.5479 42.1167 17.8563C42.0903 18.6089 41.8751 19.3549 41.7388 20.104C41.693 20.3549 41.5888 20.6178 41.6266 20.8572C41.8047 21.9869 41.3398 22.9598 40.8703 23.9083C40.1881 25.2867 39.4222 26.6235 38.6968 27.9808C38.5801 28.1994 38.4254 28.4255 38.4015 28.6597C38.3666 29.0019 38.4341 29.3548 38.4581 29.7031C38.68 29.5233 38.9225 29.3635 39.1205 29.1602C40.2116 28.0409 41.7831 27.7568 43.0304 26.898C44.2178 26.0804 45.5634 25.5119 46.5815 24.4253C47.6462 23.2891 48.3014 21.941 48.879 20.5337C48.9734 20.3039 49.0409 20.0615 49.1534 19.8416C49.2884 19.5778 49.4584 19.3318 49.6133 19.0782C49.599 19.4103 49.6218 19.7489 49.5641 20.0731C49.2892 21.6169 48.4471 22.9241 47.7673 24.299C47.7146 24.4057 47.7163 24.5393 47.6927 24.6604C47.8118 24.6231 47.9613 24.619 48.0445 24.5427C48.3746 24.2403 48.6494 23.8676 49.0084 23.6089C49.7074 23.1052 50.5395 23.2524 50.9331 23.8896C51.1981 24.3189 50.8854 25.0378 50.2397 25.4654C49.8539 25.7209 49.4594 25.9633 49.0728 26.2176C48.9995 26.2659 48.9446 26.3421 48.8812 26.4055C48.9959 26.4507 49.1319 26.5598 49.2217 26.53C49.5743 26.4129 49.924 26.2739 50.2529 26.1015C50.6247 25.9067 50.9046 25.9635 51.1783 26.277C51.5188 26.6669 51.1602 26.8624 50.9451 27.0135C50.1177 27.595 49.287 28.1801 48.4107 28.6823C46.0231 30.051 43.6191 31.3915 41.2066 32.716C40.005 33.3756 38.7722 33.9788 37.5501 34.601C37.0912 34.8345 37.0212 34.9982 37.2682 35.5792C38.0123 37.33 38.5783 39.1575 39.1805 40.9661C39.2743 41.2483 39.2596 41.606 39.1823 41.8992C38.8123 43.3023 38.9543 44.7907 39.252 46.3944C39.5071 47.7684 40.0319 49.0975 40.0144 50.5265C40.0105 50.8465 40.2821 51.1813 40.244 51.4865C40.196 51.872 39.989 52.2523 39.7731 52.5848C39.7436 52.6304 39.243 52.4274 39.0049 52.2717C38.1108 51.687 37.7973 50.7609 37.5741 49.7781C37.4078 49.0458 37.3585 48.2177 36.9691 47.6194C36.1686 46.3897 36.0182 44.9607 35.5104 43.6482C35.24 42.9495 35.277 42.1347 35.151 41.3764C35.1109 41.1347 35.0292 40.8834 34.8998 40.6783C34.7982 40.5171 34.5942 40.4202 34.4356 40.2948C34.474 40.4793 34.5371 40.6627 34.546 40.8486C34.58 41.555 34.6321 42.2636 34.606 42.9687C34.5906 43.3822 34.4871 43.8093 34.3333 44.1945C34.2372 44.4353 33.9624 44.7878 33.788 44.7767C33.4183 44.7531 33.1403 44.4025 33.2866 44.0182C33.8453 42.5511 33.3922 41.0391 33.5414 39.5572C33.5549 39.4242 33.5725 39.2795 33.5341 39.1573C33.5031 39.0588 33.3967 38.9269 33.312 38.9176C33.2166 38.9073 33.0365 38.9988 33.0155 39.0783C32.4681 41.1486 31.2752 42.9422 29.9777 44.5121C28.4616 46.3467 27.7267 48.5523 26.4491 50.477C26.101 51.0014 25.7596 51.1115 25.331 50.9565C24.8234 50.773 24.819 50.1949 24.9556 49.8051C25.2971 48.8313 25.7563 47.8989 26.1582 46.9457C26.3028 46.6026 26.5563 46.2349 26.5256 45.8998C26.3131 43.5881 27.1963 41.5779 28.1566 39.5776C28.2515 39.3802 28.2703 39.1466 28.3244 38.9297C28.1396 39.0062 27.95 39.073 27.7707 39.1606C25.832 40.108 23.9221 41.1207 21.9478 41.9872C20.5846 42.5854 19.1443 43.0215 17.7107 43.4342C17.4535 43.5082 17.0169 43.1651 16.743 42.924C16.4203 42.6399 16.5551 42.3203 16.8264 42.0133C17.1472 41.6505 17.3625 41.2015 17.8859 41.0422C18.1994 40.9468 18.5212 40.8028 18.7712 40.5979C18.991 40.4178 19.1162 40.1225 19.2831 39.8781C19.0368 39.911 18.7913 39.9636 18.5443 39.9715C18.2825 39.9797 17.9712 40.0269 17.7699 39.9079C17.5581 39.783 17.1548 39.5668 17.5201 39.1884C17.9503 38.7429 18.3511 38.0025 18.842 37.9329C20.1444 37.7481 21.1595 36.9959 22.3197 36.5498C24.7566 35.6132 27.207 34.7119 29.6527 33.7982C29.6921 33.7836 29.7508 33.8129 29.7853 33.7942C31.7286 32.7351 31.9813 33.202 31.9391 30.7945C31.9072 28.9692 31.9364 27.1572 31.4208 25.3666C31.2084 24.6292 31.3037 23.7963 31.3043 23.0069C31.3051 22.169 31.4091 21.3293 31.3787 20.4935C31.3377 19.3647 31.431 18.1591 31.058 17.1348C30.707 16.1705 31.4109 16.0187 31.761 15.5912C31.9492 15.3612 32.6094 15.8816 32.7336 16.3822C33.2776 18.5762 33.8312 20.7681 34.3436 22.9694C34.6591 24.3254 35.2034 25.6359 35.175 27.0674C35.1715 27.2374 35.4057 27.4121 35.5297 27.5848C35.5932 27.4528 35.6362 27.3054 35.7231 27.1913C36.6057 26.0321 37.5889 24.9365 38.3549 23.7057C39.0286 22.6237 39.4615 21.3922 40.0007 20.0923ZM32.6015 37.8271L32.6213 37.5781C32.5698 37.6611 32.5184 37.7442 32.3325 37.8271L32.3129 38.0761C32.3642 37.9931 32.4156 37.9101 32.6015 37.8271ZM36.5029 36.8866C36.5927 36.9313 36.6823 36.9762 36.772 37.1553C36.6823 37.475 36.5835 37.7927 36.5136 38.1165C36.5039 38.1608 36.6376 38.2362 36.705 38.2972C36.4052 37.8548 37.4595 37.4836 36.772 36.8866C36.6823 36.8418 36.5927 36.7971 36.5029 36.618L36.2536 36.5982C36.3367 36.6495 36.4199 36.701 36.5029 36.8866ZM39.3281 32.1842C39.2009 32.1842 39.0357 32.1344 38.9553 32.1957C38.8298 32.2914 38.7619 32.4623 38.6696 32.6014C38.7894 32.5618 38.9183 32.5385 39.0272 32.4787C39.1801 32.3947 39.3181 32.2837 39.5971 32.1842L39.9626 31.7431C39.8927 31.711 39.7664 31.6438 39.7612 31.652C39.6534 31.8242 39.5593 32.005 39.3281 32.1842ZM30.4491 35.4087L30.0454 35.7194L30.4297 36.1956C30.4811 36.0179 30.5393 35.8419 30.5805 35.662C30.599 35.5815 30.5836 35.4934 30.7182 35.4087L30.7379 35.1596C30.6865 35.2427 30.635 35.3257 30.4491 35.4087ZM42.0187 30.5719C41.9338 30.5719 41.8176 30.5365 41.7702 30.5786C41.6264 30.7065 41.5093 30.8644 41.3817 31.0106C41.6141 31.0235 41.8515 31.0654 42.0751 31.0272C42.1256 31.0185 42.1284 30.7311 42.2877 30.5719L42.3075 30.3229C42.256 30.4059 42.2046 30.4889 42.0187 30.5719ZM42.8259 28.9597C42.0232 28.7223 41.8748 29.7767 41.1948 29.7904C41.1771 29.7908 41.1352 29.9522 41.1498 29.9606C41.2182 30.0002 41.3057 30.0395 41.3804 30.0304C42.0881 29.9434 42.6263 29.5999 43.0949 28.9597L43.7407 28.5835C43.6918 28.5298 43.6169 28.4217 43.5981 28.4307C43.4115 28.52 43.227 28.6183 43.0583 28.7373C43.0015 28.7773 42.9917 28.8836 42.8259 28.9597ZM25.0679 39.1706C25.8758 39.0899 26.6328 38.8668 27.253 38.3194C27.3794 38.2079 27.4304 38.0112 27.5161 37.8538C27.3415 37.8449 27.144 37.7779 26.9956 37.836C25.3076 38.4967 23.5535 39.0108 22.0032 39.9842C21.6409 40.2116 21.3279 40.5218 21.0124 40.8156C20.9338 40.8887 20.9337 41.046 20.8974 41.1647C21.0185 41.1403 21.1511 41.1401 21.2589 41.0884C22.4858 40.4984 23.7091 39.9007 25.0679 39.1706ZM29.3728 40.7829C29.8069 39.9911 30.2499 39.204 30.6672 38.4034C30.7475 38.2496 30.7261 38.0429 30.7515 37.8605C30.5691 37.931 30.2941 37.9488 30.2187 38.0805C29.6895 39.0051 29.1828 39.9443 28.7187 40.9028C28.6424 41.0606 28.8106 41.3366 28.8659 41.558C28.99 41.3443 29.1142 41.1308 29.3728 40.7829ZM36.9066 27.8848C36.9514 27.728 37.0286 27.5711 37.0277 27.4146C37.0273 27.3339 36.8878 27.2541 36.8113 27.1738C36.4395 27.809 36.0559 28.438 35.7103 29.087C35.6663 29.1698 35.8205 29.3579 35.8829 29.4972C35.9999 29.4124 36.1663 29.353 36.2249 29.2384C36.4275 28.8424 36.5927 28.4271 36.9066 27.8848ZM42.9603 30.1689C43.8166 30.2466 44.2816 29.4883 44.9773 29.2212C45.0212 29.2043 45.0322 29.1022 45.0584 29.0396C44.9368 29.013 44.7847 28.9261 44.6984 28.9693C44.1114 29.2643 43.5381 29.5867 42.9603 30.1689ZM37.5792 40.1112C37.5792 39.6232 37.5975 39.1341 37.5643 38.6484C37.5574 38.547 37.3601 38.4588 37.2506 38.3646C37.1807 38.4541 37.0534 38.5418 37.0505 38.6335C37.0324 39.2097 37.0368 39.7863 37.0636 40.3622C37.0642 40.3759 37.3997 40.3742 37.5792 40.1112ZM38.6555 48.9785C38.5368 48.5914 38.428 48.2006 38.2857 47.8223C38.2701 47.7809 38.0557 47.7896 37.9457 47.8195C37.8975 47.8326 37.836 47.9722 37.8551 48.0295C38.0213 48.5269 38.2044 49.0187 38.3824 49.512C38.4734 49.4237 38.5644 49.3355 38.6555 48.9785ZM45.92 27.2131C45.2521 26.855 44.8882 27.2578 44.5715 27.7585C44.5008 27.8703 44.4667 28.005 44.4158 28.1292C44.5353 28.1157 44.6805 28.1409 44.7699 28.0818C45.118 27.8516 45.4485 27.5944 45.92 27.2131ZM37.4447 43.47L37.2559 43.0128C37.1843 43.1081 37.0394 43.2168 37.0539 43.2966C37.1127 43.622 37.2132 43.9408 37.3147 44.2569C37.3438 44.3479 37.4278 44.4214 37.4866 44.5029C37.5175 44.3819 37.5647 44.2622 37.5752 44.1393C37.5905 43.9622 37.5792 43.7828 37.4447 43.47ZM37.8482 45.2166C37.8482 45.4382 37.8274 45.6621 37.853 45.8806C37.8938 46.2296 37.9655 46.575 38.0242 46.9219C38.0553 46.5802 38.1765 46.2141 38.0921 45.9039C38.006 45.5877 38.4884 45.1087 37.8482 45.2166ZM41.077 21.3015C40.8372 21.1169 40.5938 21.0254 40.5528 21.443C40.5363 21.6119 40.6753 21.796 40.7435 21.9732C40.8546 21.8389 40.9658 21.7046 41.077 21.3015ZM33.8123 38.4989C33.9021 38.5959 34.0667 38.6913 34.0689 38.7903C34.0801 39.3139 34.3413 39.1822 34.4443 38.8982C34.5006 38.743 34.236 38.4588 34.0884 38.2524C34.0537 38.204 33.9073 38.2354 33.8123 38.4989ZM39.7316 30.975C40.0728 31.229 40.2667 31.2002 40.2784 30.7193C40.2815 30.5949 40.3906 30.4729 40.451 30.3499C40.3027 30.3772 40.142 30.3784 40.01 30.4403C39.8998 30.492 39.8232 30.615 39.7316 30.975ZM49.2833 24.3916C49.2534 24.4215 49.2168 24.4473 49.1961 24.4825C49.183 24.5047 49.1923 24.5668 49.1937 24.5669C49.4252 24.5783 49.658 24.5979 49.8873 24.5777C49.916 24.5752 49.926 24.3617 49.9446 24.246C49.769 24.2497 49.5934 24.2535 49.2833 24.3916ZM32.0634 35.6774C32.0336 35.7072 31.9971 35.7332 31.9763 35.7683C31.9632 35.7905 31.9724 35.8526 31.9738 35.8528C32.2054 35.8641 32.4382 35.8837 32.6675 35.8635C32.6962 35.861 32.7061 35.6475 32.7248 35.5317C32.5492 35.5356 32.3736 35.5392 32.0634 35.6774ZM47.6689 25.7351C47.5482 25.7662 47.4 25.7643 47.3137 25.8364C47.2041 25.9281 47.1446 26.0796 47.0635 26.2054C47.2157 26.1877 47.381 26.2007 47.5161 26.1431C47.6301 26.0945 47.709 25.9639 47.6689 25.7351ZM34.216 26.81C34.1711 27.0909 34.1175 27.3711 34.088 27.6537C34.0811 27.719 34.1565 27.793 34.1941 27.863C34.2463 27.7708 34.3329 27.6822 34.3434 27.5854C34.3662 27.374 34.3504 27.1583 34.216 26.81ZM45.92 28.2879C46.0994 28.2867 46.2791 28.2885 46.4572 28.2731C46.4648 28.2724 46.4648 28.0348 46.4572 28.034C46.2791 28.0186 46.0994 28.0205 45.92 28.2879ZM26.9513 35.9461C27.0858 35.838 27.2255 35.7351 27.3475 35.6142C27.3603 35.6014 27.2695 35.4841 27.2269 35.4152C27.0454 35.5922 26.8638 35.7692 26.9513 35.9461ZM28.1621 44.9479L28.6942 44.6733C28.5168 44.6753 28.3394 44.6772 28.1621 44.9479ZM28.7002 37.424L29.2324 37.1495C29.055 37.1514 28.8776 37.1534 28.7002 37.424ZM29.911 41.5891L30.2794 41.1508C30.2103 41.1178 30.0948 41.042 30.0797 41.0585C29.9674 41.1802 29.8751 41.3204 29.911 41.5891ZM20.2248 39.4393L20.5669 39.3665L20.1633 38.9633C20.139 39.0773 20.1146 39.1911 20.2248 39.4393ZM32.198 38.7676L32.1268 38.4278C32.0688 38.4436 31.9592 38.4694 31.9601 38.4738C31.988 38.6177 32.0265 38.7597 32.198 38.7676ZM22.1083 37.8271L21.9737 37.5584C21.9289 37.648 21.884 37.7375 22.1083 37.8271ZM33.1397 22.7793C33.1766 22.6371 33.2152 22.4952 33.2431 22.3512C33.244 22.3469 33.1343 22.3211 33.0763 22.3054C33.0526 22.4186 33.0289 22.5318 33.1397 22.7793ZM48.3416 26.9444L48.1802 26.8369C48.1891 26.9175 48.1981 26.9981 48.3416 26.9444ZM34.485 28.691L34.5926 28.5298C34.5119 28.5387 34.4312 28.5477 34.485 28.691ZM34.754 30.8406L34.8617 30.6794C34.781 30.6885 34.7002 30.6974 34.754 30.8406ZM27.7585 37.2897L27.8661 37.1285C27.7854 37.1374 27.7047 37.1464 27.7585 37.2897ZM32.7361 37.1553L32.8975 37.2628C32.8886 37.1822 32.8797 37.1016 32.7361 37.1553ZM29.2383 43.3357L29.3997 43.4432C29.3908 43.3626 29.3819 43.282 29.2383 43.3357ZM38.2518 41.3204L38.3595 41.1592C38.2788 41.1681 38.198 41.177 38.2518 41.3204Z" fill="#074942"/>
</svg>
