<svg width="60" height="24" viewBox="0 0 60 24" fill="none" xmlns="http://www.w3.org/2000/svg">
<path d="M4.09434 1.99914C5.84512 1.9142 7.48226 1.9281 9.08479 1.69988C9.81939 1.59527 10.5453 1.53327 11.2811 1.48424C13.1702 1.35853 15.0719 1.36534 16.9383 0.981261C17.0198 0.964482 17.108 0.981656 17.193 0.978641C19.6384 0.89409 22.0948 0.624576 24.5267 0.767722C28.0807 0.977067 31.6408 0.798528 35.1779 1.04418C36.9773 1.16911 38.7843 1.02531 40.5574 1.26677C42.1437 1.48267 43.7301 1.36534 45.2996 1.52579C46.3543 1.63355 47.3735 1.98879 48.4084 1.48909C49.9842 2.18083 51.6671 1.5937 53.3167 1.90883C54.8181 2.19564 56.4908 2.27613 58.0587 1.78731C58.1349 1.76345 58.2186 1.73973 58.2958 1.74733C58.6959 1.78652 59.0951 1.83581 59.4946 1.88169C59.1209 2.00583 58.7342 2.10074 58.3761 2.25988C57.4144 2.68722 56.4037 2.51209 55.418 2.49714C51.881 2.44314 48.3329 2.48403 44.813 2.19669C42.8835 2.03913 40.9486 2.22081 39.0517 1.95982C37.3772 1.72937 35.7068 1.8931 34.0515 1.72531C29.185 1.23203 24.3103 1.6249 19.442 1.48909C17.9428 2.07596 16.304 1.39418 14.8047 1.99547C14.7315 2.02484 14.636 1.99574 14.5512 1.99967C12.7155 2.08409 10.866 2.05984 9.04848 2.28819C7.54741 2.47695 6.0567 2.47761 4.55799 2.52035C4.16604 2.53149 3.77488 2.76076 3.38844 2.74712C2.61372 2.71999 1.8432 2.58759 1.06953 2.51274C0.787297 2.48535 0.470854 2.59519 0.509001 2.09169C0.556978 1.45671 1.09482 1.69267 1.25265 1.77092C2.14142 2.21177 3.06767 1.90135 4.09434 1.99914ZM15.3296 8.11995C12.6485 8.11995 10.0951 8.1227 7.54151 8.11589C7.256 8.1151 6.94939 8.11235 6.69351 8.00918C6.54984 7.95124 6.49007 7.68553 6.39241 7.51328C6.53477 7.46046 6.68172 7.35192 6.81844 7.36345C8.14936 7.47553 9.47582 7.23656 10.8276 7.51578C11.7546 7.70729 12.7791 7.37866 13.7613 7.3624C19.8114 7.26225 25.8618 7.16813 31.9127 7.11439C33.0676 7.10416 34.2341 6.93087 35.3926 7.32229C35.8091 7.46295 36.3507 7.19422 36.837 7.18177C37.1914 7.17272 37.5477 7.28572 37.905 7.32858C38.1125 7.35336 38.3399 7.40199 38.5308 7.34615C40.167 6.86703 41.7909 7.49113 43.4304 7.37958C45.0825 7.26711 46.7482 7.3548 48.408 7.3548C50.1103 7.3548 51.8512 7.57752 53.504 7.29188C55.1437 7.00847 56.8193 7.42703 58.415 6.85811C58.5744 6.80122 58.8093 6.90832 58.9916 6.98239C59.091 7.02276 59.1534 7.15385 59.2326 7.24403C59.1627 7.28087 59.0969 7.33278 59.0224 7.35218C58.6763 7.44302 58.3307 7.58001 57.9793 7.59967C56.8632 7.66194 55.7543 7.68343 54.6329 7.81806C52.5599 8.06673 50.4536 8.08141 48.3604 8.09898C47.4106 8.10697 46.4342 8.16216 45.5122 8.07591C40.6952 7.62536 35.8674 8.11051 31.063 7.80456C29.3499 7.69549 27.6876 8.0025 25.9904 7.89173C24.1682 7.77284 22.3211 7.73993 20.5055 7.9013C18.8206 8.05113 17.1428 8.11077 15.3296 8.11995ZM39.3323 14.7507C34.6124 14.7507 30.02 14.72 25.4282 14.7616C22.4442 14.7886 19.4503 14.7989 16.4816 15.0556C14.9312 15.1897 13.3144 15.1573 11.8165 15.7629C11.6703 15.8219 11.4556 15.8217 11.3163 15.7564C11.1784 15.6919 11.0106 15.5084 11.0128 15.3799C11.015 15.2534 11.2016 15.0372 11.329 15.0199C12.7437 14.8274 14.1801 14.7542 15.5762 14.4759C17.9623 14.0001 20.3591 14.3839 22.7449 14.236C23.5203 14.1879 24.3276 14.435 25.0676 13.9933C25.1616 13.9372 25.3353 13.9457 25.443 13.9918C26.4825 14.4357 27.5095 13.8776 28.5525 13.9649C29.6502 14.057 30.7617 13.9855 31.8673 13.9855C32.9727 13.9855 34.0806 13.9395 35.1834 13.9942C38.4777 14.1578 41.7743 14.2055 45.0698 14.2953C46.2996 14.3287 47.5613 14.6044 48.7889 14.466C50.5743 14.2645 52.4441 14.3822 54.0826 13.4103C54.1649 13.3616 54.2621 13.338 54.3522 13.3026C54.3525 13.4175 54.4 13.5983 54.3457 13.6371C53.9237 13.9387 53.5163 14.3152 53.0393 14.4737C52.125 14.7777 51.2009 15.0501 50.1963 15.0218C48.2419 14.9668 46.2843 15.0384 44.3293 14.9955C42.7051 14.96 41.0829 14.8356 39.3323 14.7507ZM37.5448 21.1266C38.7412 21.2392 39.8442 20.8818 40.8909 21.3696C41.0053 21.423 41.1956 21.2876 41.3526 21.281C41.8679 21.2592 42.3841 21.2439 42.8996 21.2494C43.8213 21.2592 44.7427 21.3026 45.6641 21.2966C45.98 21.2945 46.2963 21.1303 46.6107 21.1358C48.3801 21.1666 50.1103 20.9775 51.7869 20.3747C51.9388 20.3201 52.1581 20.4523 52.3461 20.4978C52.2258 20.618 52.1268 20.788 51.9815 20.8503C51.0645 21.2436 50.1398 21.5565 49.1185 21.6537C43.8391 22.1561 38.5457 21.6774 33.2699 21.9398C31.5608 22.0249 29.8269 21.9453 28.1468 22.1926C26.3383 22.4588 24.494 22.3922 22.7057 22.8835C21.807 23.1304 20.8256 23.0698 19.8841 23.1713C19.321 23.232 18.7647 23.3649 18.2012 23.4041C18.0401 23.4151 17.8642 23.2115 17.6949 23.1064C17.8556 22.9863 17.9996 22.8097 18.1801 22.7566C18.6764 22.6106 19.1825 22.4659 19.6944 22.4108C21.4934 22.2172 23.3158 22.1687 25.0905 21.8498C26.0899 21.6702 27.0872 21.7929 28.0511 21.6126C29.93 21.2613 31.8315 21.5777 33.6873 21.3326C34.9392 21.1675 36.1736 21.177 37.5448 21.1266Z" fill="#FFFF00"/>
</svg>
