<svg width="36" height="40" viewBox="0 0 36 40" fill="none" xmlns="http://www.w3.org/2000/svg">
<path d="M25.7876 4.13686L26.0922 6.37686L27.3434 4.49031L34.6809 -6.57338L30.5647 6.03416L29.8623 8.18367L31.8125 7.02437L43.2463 0.225212L34.041 9.80613L32.4716 11.4405L34.7337 11.2369L48 10.0487L35.5292 14.7063L33.4029 15.5003L35.5292 16.2943L48 20.9518L34.7337 19.7631L32.4716 19.5607L34.041 21.1944L43.2463 30.7754L31.8125 23.9762L29.8623 22.8169L30.5647 24.9664L34.6809 37.574L27.3434 26.5103L26.0922 24.6237L25.7876 26.8637L24 40L22.2124 26.8637L21.9078 24.6237L20.6566 26.5103L13.3191 37.5734L17.4353 24.9664L18.1376 22.8169L16.1875 23.9762L4.75375 30.7754L13.9589 21.1944L15.5284 19.5607L13.2663 19.7631L0 20.9518L12.4708 16.2943L14.5971 15.5003L12.4708 14.7063L0 10.0487L13.2663 11.2374L15.5278 11.4399L13.9589 9.80613L4.75375 0.225212L16.1869 7.02437L18.1371 8.18367L17.4348 6.03416L13.3186 -6.57282L20.6566 4.48974L21.9078 6.3763L22.2124 4.13686L24 -9L25.7876 4.13686Z" fill="#074942"/>
</svg>
