<svg width="500" height="500" viewBox="0 0 134 134" fill="none" xmlns="http://www.w3.org/2000/svg">
<path d="M71.5126 78.1096C65.8692 81.2181 60.4334 84.322 54.9578 87.3555C54.3483 87.693 53.1266 87.9713 52.8655 87.678C52.349 87.0971 52.0066 86.054 52.1147 85.2775C52.8639 79.8953 53.8009 74.5406 54.5679 69.1607C55.0331 65.8977 55.1747 62.5824 55.7473 59.3426C55.8928 58.5194 57.1283 57.8945 57.863 57.1785C58.3066 57.7735 59.187 58.4219 59.1247 58.9549C58.6131 63.329 57.9532 67.6858 57.2831 72.0389C56.8243 75.0185 56.1478 77.9687 55.8154 80.9608C55.6003 82.8954 56.6621 83.5943 58.4073 82.5114C63.438 79.3903 68.4323 76.2106 73.4533 73.0737C74.1058 72.666 74.8014 72.1948 75.5308 72.0792C76.2232 71.9695 76.9859 72.2882 77.7177 72.4185C77.3151 73.307 77.1401 74.4716 76.463 75.0268C75.0159 76.2134 73.3088 77.0844 71.5126 78.1096Z" fill="#FFFF00"/>
<path d="M75.3655 59.3166C75.7034 60.0251 76.1916 61.2289 75.9331 61.4179C73.8602 62.933 71.732 64.4257 69.4423 65.5729C68.1552 66.2176 66.9206 65.7952 67.1291 63.8091C67.4295 60.9495 67.5603 58.0703 67.9075 55.2178C67.9582 54.8021 68.7683 54.38 69.3091 54.1896C69.4782 54.1302 70.159 54.8027 70.19 55.1723C70.3381 56.941 70.3386 58.7209 70.404 60.4963C70.4152 60.7957 70.4878 61.093 70.5321 61.3913C71.091 61.2269 71.6806 61.1276 72.202 60.8842C73.2115 60.4129 74.1827 59.8604 75.3655 59.3166Z" fill="#074942"/>
<path d="M85.1993 49.5063C85.4053 50.0768 85.5094 50.7707 85.3556 50.8327C82.704 51.8986 80.0598 53.0276 77.3118 53.776C76.7453 53.9305 74.9981 52.3948 75.1052 51.9924C75.6762 49.8454 76.5769 47.7675 77.5774 45.7735C77.7828 45.3637 78.8979 45.4125 79.5937 45.2501C79.6966 45.8715 79.9 46.499 79.866 47.1121C79.844 47.5085 79.3778 47.8608 79.2823 48.2736C79.1241 48.9571 79.1042 49.6734 79.0261 50.3759C79.6948 50.056 80.559 49.9014 80.9965 49.3855C82.3661 47.7708 83.6305 48.1459 85.1993 49.5063Z" fill="#7BECAB" fill-opacity="0.78"/>
</svg>
