<svg width="50" height="38" viewBox="0 0 50 38" fill="none" xmlns="http://www.w3.org/2000/svg">
<path d="M42.0554 15.8113C40.6892 17.5586 40.867 19.5293 41.0654 21.3942C41.135 22.0485 41.9904 22.7039 42.8884 23.0193C44.2595 23.5008 45.6303 23.6817 47.0636 23.6589C47.656 23.6495 48.2509 23.7891 48.8445 23.861C48.3322 24.618 47.5519 24.2902 46.8926 24.2856C45.6203 24.2769 44.3593 24.2333 43.0752 24.0477C41.2168 23.7791 40.463 22.4785 39.7428 21.1703C39.3425 20.443 39.3861 19.4359 39.3521 18.5501C39.3021 17.245 39.7369 16.0917 40.7112 15.1734C41.1096 14.7978 41.5436 14.4416 41.8648 14.0054C43.0316 12.421 44.8323 12.1854 46.5375 11.7896C47.4692 11.5735 48.3312 11.9091 48.945 12.6696C49.1226 12.8899 49.1361 13.2427 49.2248 13.5348C48.8808 13.6065 48.5372 13.6803 48.1923 13.747C48.1454 13.7562 48.062 13.7465 48.0452 13.7171C47.241 12.3123 46.0865 12.7354 45.0102 13.2101C43.9715 13.6682 42.9101 14.1677 42.4774 15.3769C42.4273 15.5168 42.254 15.6126 42.0554 15.8113ZM2.99452 9.87389C3.57394 10.3437 4.08673 10.7132 4.5559 11.1317C4.6643 11.2284 4.62302 11.4929 4.6507 11.6801C4.50226 11.7019 4.33553 11.7792 4.20823 11.7371C2.28533 11.0998 0.775363 9.0175 0.775981 6.97867C0.776229 6.1727 0.758061 5.34993 0.905634 4.56435C1.22612 2.85824 2.66811 2.03843 4.04051 1.61846C5.66591 1.12111 7.39254 0.685558 9.16836 0.877254C10.1411 0.98231 10.9222 1.34642 11.6733 2.01038C12.3664 2.62304 11.7388 3.05909 11.5601 3.36634C11.3314 3.75963 10.8545 3.53023 10.4742 3.20493C10.0109 2.80868 9.48415 2.38771 8.91561 2.23396C7.62181 1.88406 6.34915 2.24966 5.05127 2.48091C4.00739 2.66692 3.37112 3.10605 3.08981 4.02486C2.50941 5.92032 1.90466 7.83766 2.99452 9.87389ZM30.4361 29.5828C30.5459 31.1306 30.5153 32.5444 30.8113 33.8862C31.0376 34.9122 31.8324 35.7047 32.8388 36.1813C33.1146 36.312 33.4004 36.4333 33.6484 36.6065C33.7993 36.7119 33.8871 36.9081 34.0033 37.0634C33.8532 37.0988 33.704 37.1601 33.553 37.1656C31.7975 37.2297 30.9014 36.0341 30.1178 34.7412C29.6179 33.9163 29.1601 33.052 28.8009 32.158C27.8157 29.7059 28.6339 28.2166 31.0989 27.662C32.9081 27.2549 34.837 27.3257 36.714 27.3022C37.474 27.2926 38.2808 27.5209 38.7884 28.2202C38.9906 28.4987 39.3381 29.0024 39.2583 29.0963C38.9675 29.4387 38.5408 29.6835 38.13 29.8969C37.9645 29.9828 37.6878 29.9433 37.4968 29.8698C37.2151 29.7613 36.9647 29.5712 36.701 29.4158C36.953 29.3616 37.2033 29.2951 37.4578 29.2575C37.6189 29.2336 37.8062 29.2995 37.946 29.2406C38.1008 29.1752 38.2152 29.0133 38.3472 28.8934C38.2501 28.7934 38.1704 28.6377 38.0537 28.6017C36.325 28.0679 34.5435 28.1149 32.8106 28.4187C32.0062 28.5597 30.9091 28.355 30.4361 29.5828ZM23.1842 8.80183C22.9459 7.16505 23.9609 6.4021 24.9022 5.59885C26.3512 4.36215 28.2473 4.4195 29.938 3.88656C30.1121 3.83156 30.4862 4.0261 30.5828 4.20482C30.7132 4.44632 30.797 4.89955 30.6622 5.05491C30.4531 5.29604 29.8856 5.5745 29.7436 5.46895C28.8001 4.76717 27.8757 5.27528 27.0476 5.54088C25.6408 5.99201 24.3637 7.61926 25.0467 9.5298C25.2869 10.2019 25.2752 10.9687 25.542 11.6257C25.9423 12.6112 26.5952 13.3425 27.8482 13.1086C28.0276 13.0751 28.2537 13.2928 28.4583 13.3941C28.2709 13.5127 28.0968 13.6768 27.8923 13.7367C27.6908 13.796 27.4481 13.7078 27.2411 13.7575C26.6136 13.9078 26.1029 14.3551 25.3329 13.8296C24.6412 13.3576 24.2711 12.7081 24.0358 12.0665C23.6707 11.071 22.9124 10.1457 23.1842 8.80183ZM11.7296 25.5421C11.1306 23.9943 10.565 22.4337 10.0332 20.8615C9.95011 20.616 9.91068 20.2769 10.0144 20.059C10.8107 18.3859 11.4169 16.5363 13.5701 16.0484C14.0594 15.9375 14.5125 15.6758 14.9938 15.5191C16.0833 15.1643 18.0288 15.7276 18.5583 16.5703C18.6949 16.7877 18.8196 17.2605 18.7337 17.3242C18.4611 17.5263 18.0922 17.6472 17.7486 17.6819C17.5975 17.6971 17.2783 17.4334 17.2734 17.2881C17.239 16.2873 16.5285 16.308 15.8889 16.402C12.7004 16.8703 11.6023 19.0792 12.0716 21.9241C12.139 22.3322 12.2486 22.7343 12.3023 23.1439C12.4255 24.0843 12.5371 25.0266 12.6273 25.9707C12.646 26.1669 12.5518 26.3739 12.5096 26.5759C12.3935 26.3751 12.29 26.1654 12.1567 25.9769C12.063 25.8444 11.9284 25.741 11.7296 25.5421ZM11.1528 21.3364L11.2847 21.1385C11.1858 21.1495 11.0869 21.1605 11.1528 21.3364Z" fill="#FFFF00"/>
</svg>
