<svg width="199" height="217" viewBox="0 0 199 217" fill="none" xmlns="http://www.w3.org/2000/svg">
<path d="M-3.4869 150.964L-9.33594 144.876C-0.0474091 135.209 5.26119 122.786 6.44231 107.953C7.34089 96.6693 5.38487 88.1563 5.36507 88.0718L13.3957 86.0078C13.4886 86.3991 15.6666 95.7341 14.711 108.346C13.4365 125.163 7.14404 139.9 -3.4869 150.964Z" fill="#FFFF00"/>
<path d="M43.0151 205.449L37.166 199.361C48.6195 187.441 64.8242 181.445 84.0287 182.021C98.285 182.45 109.131 186.302 109.586 186.466L106.88 194.602L108.233 190.534L106.884 194.603C106.783 194.567 96.5978 190.974 83.5614 190.621C66.5531 190.16 52.9115 195.149 43.0151 205.449Z" fill="#7BECAB" fill-opacity="0.78"/>
<path d="M14.3945 142.271C17.3922 137.084 21.3338 135.73 24.2118 134.741C26.6476 133.904 28.1177 133.399 29.5341 130.949C30.9501 128.499 30.6898 126.91 30.2585 124.279C29.7492 121.169 29.0515 116.91 32.0488 111.723C35.0464 106.536 38.9884 105.181 41.8664 104.192C44.3026 103.355 45.7728 102.85 47.1896 100.399C48.6059 97.9483 48.3456 96.3597 47.9147 93.7278C47.4054 90.6179 46.7077 86.3592 49.7054 81.1719L56.7938 85.6095C55.3774 88.0605 55.6377 89.6491 56.0686 92.281C56.5779 95.3908 57.2756 99.6496 54.2779 104.837C51.2798 110.024 47.3383 111.378 44.4603 112.368C42.0241 113.205 40.5535 113.71 39.1371 116.161C37.7212 118.611 37.9815 120.2 38.4124 122.831C38.9221 125.941 39.6198 130.199 36.6221 135.386C33.6244 140.573 29.6829 141.927 26.8048 142.917C24.369 143.753 22.8989 144.259 21.4825 146.709L14.3945 142.271Z" fill="#7BECAB" fill-opacity="0.78"/>
<path d="M48.4945 165.346L44.4414 157.841C49.6659 154.785 53.8682 155.664 56.9362 156.305C59.5943 156.862 61.1987 157.197 63.7481 155.706C66.2975 154.215 66.8561 152.614 67.781 149.962C68.8493 146.9 70.3122 142.707 75.5363 139.651C80.7612 136.594 84.9639 137.473 88.0319 138.115C90.6904 138.671 92.2948 139.006 94.845 137.515C97.3948 136.023 97.9538 134.422 98.8795 131.769C99.9478 128.708 101.411 124.514 106.636 121.458L110.689 128.963C108.139 130.455 107.58 132.056 106.655 134.709C105.586 137.77 104.123 141.964 98.8981 145.02C93.6731 148.076 89.4709 147.197 86.4025 146.556C83.7443 145.999 82.1396 145.664 79.5898 147.155C77.0404 148.646 76.4818 150.248 75.5569 152.9C74.4886 155.962 73.0257 160.154 67.8016 163.211C62.5771 166.267 58.3748 165.388 55.3064 164.746C52.6482 164.19 51.0439 163.854 48.4945 165.346Z" fill="#FFFF00"/>
<path d="M100.919 165.922C103.203 165.922 105.055 163.995 105.055 161.617C105.055 159.24 103.203 157.312 100.919 157.312C98.6349 157.312 96.7832 159.24 96.7832 161.617C96.7832 163.995 98.6349 165.922 100.919 165.922Z" fill="#FFFF00"/>
<path d="M82.4953 216.146C84.7796 216.146 86.6313 214.219 86.6313 211.842C86.6313 209.464 84.7796 207.537 82.4953 207.537C80.2111 207.537 78.3594 209.464 78.3594 211.842C78.3594 214.219 80.2111 216.146 82.4953 216.146Z" fill="#FFFF00"/>
<path d="M120.515 179.62C122.799 179.62 124.651 177.693 124.651 175.315C124.651 172.938 122.799 171.011 120.515 171.011C118.231 171.011 116.379 172.938 116.379 175.315C116.379 177.693 118.231 179.62 120.515 179.62Z" fill="#7BECAB" fill-opacity="0.78"/>
<path d="M86.8821 120.266C89.1663 120.266 91.018 118.338 91.018 115.961C91.018 113.584 89.1663 111.656 86.8821 111.656C84.5978 111.656 82.7461 113.584 82.7461 115.961C82.7461 118.338 84.5978 120.266 86.8821 120.266Z" fill="#7BECAB" fill-opacity="0.78"/>
<path d="M26.052 88.6093C28.3362 88.6093 30.1879 86.682 30.1879 84.3046C30.1879 81.9273 28.3362 80 26.052 80C23.7678 80 21.916 81.9273 21.916 84.3046C21.916 86.682 23.7678 88.6093 26.052 88.6093Z" fill="#7BECAB" fill-opacity="0.78"/>
<path d="M54.7102 125.744C56.9944 125.744 58.8461 123.817 58.8461 121.439C58.8461 119.062 56.9944 117.135 54.7102 117.135C52.4259 117.135 50.5742 119.062 50.5742 121.439C50.5742 123.817 52.4259 125.744 54.7102 125.744Z" fill="#FCD031"/>
<path d="M23.4192 179.011C25.7034 179.011 27.5551 177.083 27.5551 174.706C27.5551 172.329 25.7034 170.401 23.4192 170.401C21.1349 170.401 19.2832 172.329 19.2832 174.706C19.2832 177.083 21.1349 179.011 23.4192 179.011Z" fill="#7BECAB" fill-opacity="0.78"/>
<path d="M70.5131 70.9637L64.6641 64.8761C73.9526 55.2088 79.2612 42.7862 80.4423 27.9534C81.3409 16.6693 79.3849 8.15635 79.3651 8.07179L87.3957 6.00781C87.4886 6.39907 89.6666 15.7341 88.711 28.3464C87.4365 45.1628 81.144 59.8996 70.5131 70.9637Z" fill="#FFFF00"/>
<path d="M117.015 125.45L111.166 119.362C122.62 107.441 138.824 101.446 158.029 102.022C172.285 102.451 183.131 106.303 183.586 106.467L180.88 114.603L182.233 110.535L180.884 114.604C180.783 114.568 170.598 110.975 157.561 110.622C140.553 110.16 126.912 115.15 117.015 125.45Z" fill="#7BECAB" fill-opacity="0.78"/>
<path d="M88.3945 62.2712C91.3922 57.0843 95.3338 55.7301 98.2118 54.741C100.648 53.9042 102.118 53.399 103.534 50.9488C104.95 48.4986 104.69 46.91 104.258 44.2785C103.749 41.1691 103.051 36.9103 106.049 31.7234C109.046 26.5361 112.988 25.1815 115.866 24.1924C118.303 23.3552 119.773 22.8499 121.19 20.3993C122.606 17.9483 122.346 16.3597 121.915 13.7278C121.405 10.6179 120.708 6.35916 123.705 1.17188L130.794 5.60947C129.377 8.06049 129.638 9.64907 130.069 12.281C130.578 15.3908 131.276 19.6496 128.278 24.8369C125.28 30.0238 121.338 31.3784 118.46 32.3675C116.024 33.2047 114.554 33.71 113.137 36.161C111.721 38.6108 111.981 40.1998 112.412 42.8309C112.922 45.9407 113.62 50.1991 110.622 55.3864C107.624 60.5732 103.683 61.9275 100.805 62.9165C98.369 63.7533 96.8989 64.2586 95.4825 66.7088L88.3945 62.2712Z" fill="#7BECAB" fill-opacity="0.78"/>
<path d="M122.494 85.3459L118.441 77.8409C123.666 74.785 127.868 75.6638 130.936 76.3054C133.594 76.8615 135.199 77.1973 137.748 75.7059C140.297 74.2149 140.856 72.6137 141.781 69.9616C142.849 66.8997 144.312 62.7069 149.536 59.6505C154.761 56.5941 158.964 57.4734 162.032 58.115C164.69 58.6707 166.295 59.0064 168.845 57.5146C171.395 56.0228 171.954 54.4216 172.879 51.7695C173.948 48.7076 175.411 44.5144 180.636 41.458L184.689 48.9634C182.139 50.4552 181.58 52.056 180.655 54.7085C179.586 57.7704 178.123 61.9636 172.898 65.02C167.673 68.0764 163.471 67.1971 160.402 66.5555C157.744 65.9994 156.14 65.6637 153.59 67.1555C151.04 68.6465 150.482 70.2476 149.557 72.8998C148.489 75.9617 147.026 80.1544 141.802 83.2108C136.577 86.2668 132.375 85.3875 129.306 84.746C126.648 84.1902 125.044 83.8545 122.494 85.3459Z" fill="#FFFF00"/>
<path d="M174.919 85.9218C177.203 85.9218 179.055 83.9945 179.055 81.6171C179.055 79.2398 177.203 77.3125 174.919 77.3125C172.635 77.3125 170.783 79.2398 170.783 81.6171C170.783 83.9945 172.635 85.9218 174.919 85.9218Z" fill="#FFFF00"/>
<path d="M156.495 136.146C158.78 136.146 160.631 134.219 160.631 131.842C160.631 129.464 158.78 127.537 156.495 127.537C154.211 127.537 152.359 129.464 152.359 131.842C152.359 134.219 154.211 136.146 156.495 136.146Z" fill="#FFFF00"/>
<path d="M194.515 99.62C196.799 99.62 198.651 97.6928 198.651 95.3154C198.651 92.938 196.799 91.0107 194.515 91.0107C192.231 91.0107 190.379 92.938 190.379 95.3154C190.379 97.6928 192.231 99.62 194.515 99.62Z" fill="#7BECAB" fill-opacity="0.78"/>
<path d="M160.882 40.2655C163.166 40.2655 165.018 38.3383 165.018 35.9609C165.018 33.5835 163.166 31.6562 160.882 31.6562C158.598 31.6562 156.746 33.5835 156.746 35.9609C156.746 38.3383 158.598 40.2655 160.882 40.2655Z" fill="#7BECAB" fill-opacity="0.78"/>
<path d="M100.052 8.6093C102.336 8.6093 104.188 6.68204 104.188 4.30465C104.188 1.92726 102.336 0 100.052 0C97.7678 0 95.916 1.92726 95.916 4.30465C95.916 6.68204 97.7678 8.6093 100.052 8.6093Z" fill="#7BECAB" fill-opacity="0.78"/>
<path d="M128.71 45.7441C130.994 45.7441 132.846 43.8168 132.846 41.4394C132.846 39.062 130.994 37.1348 128.71 37.1348C126.426 37.1348 124.574 39.062 124.574 41.4394C124.574 43.8168 126.426 45.7441 128.71 45.7441Z" fill="#FCD031"/>
<path d="M97.4192 99.0107C99.7034 99.0107 101.555 97.0834 101.555 94.706C101.555 92.3286 99.7034 90.4014 97.4192 90.4014C95.1349 90.4014 93.2832 92.3286 93.2832 94.706C93.2832 97.0834 95.1349 99.0107 97.4192 99.0107Z" fill="#7BECAB" fill-opacity="0.78"/>
<path d="M54.136 29.0029C56.4202 29.0029 58.2719 27.0756 58.2719 24.6982C58.2719 22.3208 56.4202 20.3936 54.136 20.3936C51.8517 20.3936 50 22.3208 50 24.6982C50 27.0756 51.8517 29.0029 54.136 29.0029Z" fill="#FFFF00"/>
</svg>
