<svg width="100" height="145" viewBox="0 0 100 145" fill="none" xmlns="http://www.w3.org/2000/svg">
<path d="M-48.3343 26.8525L-48.7074 26.0395L-48.3343 26.8525ZM-48.7074 26.0395C-70.9854 12.0528 -75.5646 0.673698 -72.0221 -24.8543C-47.2435 -20.6588 -35.486 -15.6885 -26.6891 8.12338C-27.448 -11.4071 -19.9475 -19.4027 0.674812 -30.9609C11.5631 -14.0624 11.7571 -3.78784 2.30827 15.8593C20.6548 1.3627 31.7519 -0.44566 53.36 10.1586C37.354 34.8386 26.26 40.57 3.94173 41.101C24.793 51.1732 28.0843 61.4742 29.6722 82.2206C2.81071 77.0933 -8.8567 70.939 -16.8873 47.6147C-20.8898 68.5349 -30.0684 76.6418 -54.8692 86.6991C-57.6209 69.4401 -55.5327 60.586 -39.3497 47.6147C-56.386 56.8717 -66.4624 57.6084 -85.5 50.058C-76.7444 35.1343 -70.1183 28.4669 -48.7074 26.0395Z" fill="#7BECAB" fill-opacity="0.78"/>
<path d="M-37.7347 37.4521L-38.1078 36.6391M-38.1078 36.6391C-60.3858 22.6524 -64.965 11.2733 -61.4225 -14.2547C-36.6439 -10.0592 -24.8864 -5.08885 -16.0895 18.723C-16.8484 -0.807507 -9.34788 -8.80309 11.2744 -20.3613C22.1627 -3.46281 22.3567 6.81177 12.9079 26.4589C31.2544 11.9623 42.3515 10.154 63.9596 20.7582C47.9536 45.4382 36.8596 51.1696 14.5413 51.7006C35.3926 61.7728 38.6839 72.0738 40.2718 92.8202C13.4103 87.6929 1.7429 81.5386 -6.28766 58.2143C-10.2902 79.1345 -19.4688 87.2414 -44.2696 97.2987C-47.0213 80.0397 -44.9331 71.1856 -28.7501 58.2143C-45.7864 67.4713 -55.8628 68.208 -74.9004 60.6576C-66.1448 45.7339 -59.5187 39.0665 -38.1078 36.6391Z" stroke="#FFFF00" stroke-opacity="0.35" stroke-width="2.5" stroke-linecap="round" stroke-linejoin="round"/>
</svg>
