<svg width="50" height="50" viewBox="0 0 50 50" fill="none" xmlns="http://www.w3.org/2000/svg">
<path d="M9.375 3.12109H40.625C44.0625 3.12109 46.875 5.92992 46.875 9.36293V40.5721C46.875 44.0051 44.0625 46.814 40.625 46.814H9.375C5.9375 46.814 3.125 44.0051 3.125 40.5721V9.36293C3.125 5.92992 5.9375 3.12109 9.375 3.12109Z" fill="#074942"/>
<path fill-rule="evenodd" clip-rule="evenodd" d="M20.625 25.1229V40.2594C20.625 40.4154 20.7813 40.7275 21.0938 40.7275H27.1875C27.5 40.7275 27.6563 40.5715 27.6563 40.2594V24.9669H32.0313C32.1875 24.9669 32.5 24.8109 32.5 24.6548L32.9688 19.9734C32.9688 19.6613 32.8125 19.5053 32.5 19.5053H27.6563V16.2283C27.6563 15.4481 28.2813 14.8239 29.2188 14.8239H32.6563C32.9688 14.8239 33.125 14.6679 33.125 14.3558V9.83044C32.8125 9.51835 32.6563 9.3623 32.3438 9.3623H26.7188C23.4375 9.3623 20.625 11.859 20.625 14.98V19.5053H17.6563C17.3438 19.5053 17.1875 19.6613 17.1875 19.9734V24.6548C17.1875 24.8109 17.3438 25.1229 17.6563 25.1229H20.625Z" fill="white"/>
</svg>
