<svg width="81" height="82" viewBox="0 0 81 82" fill="none" xmlns="http://www.w3.org/2000/svg">
<path d="M31.5949 48.7465C34.3029 52.3166 36.9341 55.8665 39.6825 59.3234C40.1666 59.9322 40.1899 60.3887 40.1063 61.0287C40.0733 61.2809 40.1953 61.5908 40.3445 61.8074C40.3913 61.8752 40.8106 61.7878 40.9671 61.6594C41.3336 61.3585 41.6717 61.0119 41.97 60.6425C42.2644 60.2778 42.496 59.8624 42.7548 59.4691C44.9466 56.1372 47.0899 52.7721 49.3507 49.4875C50.4856 47.8385 51.8376 46.3389 53.0807 44.7633C53.2109 44.5982 53.2681 44.3757 53.3594 44.1798C53.0208 44.0832 52.6199 43.8298 52.3607 43.9325C52.0846 44.0419 51.9507 44.4939 51.7373 44.7836C51.6697 44.8755 51.5466 44.9264 51.4489 44.9959C51.4346 44.8888 51.3683 44.7458 51.4137 44.6801C52.1802 43.5713 52.2599 42.2152 52.7564 41.0122C52.9892 40.4482 53.3212 39.9252 53.5562 39.362C53.6214 39.206 53.5001 38.9724 53.4642 38.7745C53.2152 38.8549 52.9138 38.8745 52.731 39.0316C52.5095 39.222 52.3312 39.5087 52.2343 39.7885C51.9441 40.6274 51.212 40.676 50.5616 40.6298C49.847 40.579 49.0953 40.4086 48.4575 40.0931C47.7965 39.766 47.2637 39.1873 46.6506 38.7525C46.4767 38.6292 46.2188 38.6244 45.9994 38.5652C45.9991 38.7548 45.9427 38.9679 46.0102 39.1291C46.1542 39.4726 46.3297 39.8133 46.5512 40.1115C47.0338 40.7609 46.9786 41.2656 46.196 41.3382C45.3203 41.4193 44.9966 41.9196 44.6445 42.5223C44.295 43.1208 43.7824 43.294 43.1502 43.0608C42.5243 42.8302 42.2248 42.4683 42.1871 41.686C42.1069 40.0233 41.8546 38.3634 41.5847 36.7168C41.2265 34.5294 40.7654 32.3592 40.3838 30.1754C39.9873 27.9071 39.6326 25.6316 39.2607 23.3591C39.2294 23.1671 39.2376 22.9619 39.1709 22.7841C39.0583 22.4845 38.9003 22.2019 38.7614 21.9122C38.5433 22.1518 38.285 22.3669 38.1204 22.6386C37.9908 22.8526 37.9765 23.1365 37.9111 23.3894C37.8605 23.102 37.8074 22.815 37.7601 22.5271C37.6386 21.7878 37.5679 21.0351 37.3727 20.3159C37.3087 20.0802 36.9246 19.9309 36.6867 19.7421C36.6042 19.9969 36.4178 20.2681 36.4551 20.5041C36.893 23.2711 37.4577 26.0214 37.8009 28.7992C38.1335 31.4918 38.2193 34.2139 38.4708 36.9178C38.5836 38.1315 38.8404 39.3315 39.0222 40.5393C39.076 40.8977 39.2294 41.327 39.0924 41.6023C38.9728 41.8424 38.4901 42.0651 38.2003 42.0297C36.861 41.8666 35.5197 41.6671 34.2079 41.3583C33.729 41.2455 33.3473 40.7626 32.8885 40.5076C32.5504 40.3194 32.0541 40.0121 31.8103 40.1307C31.0031 40.5234 30.3647 40.1924 29.6556 39.9282C29.2148 39.764 28.7173 39.6691 28.2486 39.6807C27.475 39.6998 26.8945 40.9996 27.3218 41.6716C28.2023 43.0565 29.1106 44.4242 29.9648 45.8248C30.534 46.7582 31.0293 47.7366 31.5949 48.7465ZM43.8162 51.8383C43.8063 51.8974 43.8035 51.9586 43.7854 52.015C43.6116 52.5576 43.4352 53.0992 43.2596 53.641C43.3731 53.1065 43.4779 52.5696 43.6076 52.0388C43.634 51.9308 43.7541 51.8455 43.8458 51.6611C43.852 51.3778 43.805 51.0809 43.8742 50.814C44.0923 49.9741 44.3475 49.1433 44.6079 48.3153C44.6363 48.2249 44.7924 48.1744 44.8893 48.1054C44.9097 48.1805 44.9653 48.2668 44.9453 48.3292C44.5792 49.471 44.2042 50.61 43.8162 51.8383ZM36.6953 49.098C37.1766 50.209 37.6644 51.3171 38.1306 52.4344C38.1882 52.5726 38.1305 52.7586 38.1264 52.9223C37.9976 52.7914 37.8347 52.6801 37.7456 52.5263C37.137 51.4767 36.5397 50.4205 35.9469 49.3619C35.2575 48.13 34.5702 46.8967 33.8982 45.6553C33.7891 45.4539 33.7636 45.2076 33.6995 44.982C33.9259 45.1278 34.2306 45.2222 34.3659 45.4277C35.1401 46.6019 35.8739 47.8027 36.6953 49.098ZM35.8677 43.1252C36.6344 43.1317 37.4039 43.1033 38.1663 43.1634C38.4488 43.1857 38.7147 43.4161 38.9882 43.5515C38.7763 43.7048 38.5548 44.0006 38.3543 43.9868C37.5015 43.9284 36.6527 43.7912 35.8103 43.6385C35.7398 43.6258 35.7288 43.2843 35.8677 43.1252ZM32.4317 47.2911C32.2499 46.9637 32.0543 46.6427 31.8948 46.3049C31.849 46.2079 31.9072 46.062 31.9175 45.9387C32.0127 45.991 32.1438 46.0192 32.1974 46.0993C32.7717 46.9573 33.3407 47.8192 33.8886 48.6942C33.9451 48.7845 33.8551 48.9661 33.8331 49.1054C33.7392 49.023 33.6272 48.954 33.5548 48.8558C33.1993 48.3731 32.8545 47.8824 32.4317 47.2911ZM38.4728 46.1133C39.0245 46.2855 38.8875 46.6675 38.7011 47.0074C38.6824 47.0416 38.1991 46.9114 38.0296 46.7529C37.7539 46.4954 37.5595 46.1513 37.3307 45.8438C37.6868 45.8991 38.0428 45.9545 38.4728 46.1133ZM39.0049 49.4842C39.1764 49.8698 39.3589 50.2513 39.5117 50.6442C39.5522 50.7486 39.5014 50.8883 39.4926 51.0117C39.3974 50.9614 39.2578 50.9357 39.2139 50.8569C38.9073 50.3083 38.6154 49.7512 38.3327 49.1898C38.2901 49.1053 38.3204 48.9844 38.3171 48.8803C38.4348 48.9254 38.5742 48.945 38.6643 49.0221C38.7748 49.1165 38.8439 49.2589 39.0049 49.4842ZM42.7373 44.6385C42.5645 44.5487 42.3879 44.4656 42.2208 44.3667C42.1361 44.3167 42.0686 44.238 41.9933 44.1723C42.0735 44.1172 42.1484 44.027 42.235 44.014C42.4837 43.9764 42.7603 43.8989 42.9826 43.9709C43.2123 44.0453 43.3912 44.2767 43.5923 44.4395C43.3665 44.5156 43.1407 44.5919 42.7373 44.6385ZM48.0814 47.0818C48.013 47.1268 47.9446 47.1719 47.8762 47.2169C47.9499 46.7762 47.9922 46.3263 48.1163 45.9002C48.1539 45.7714 48.4186 45.7085 48.5791 45.6153C48.5895 45.7785 48.6494 45.9591 48.5998 46.1015C48.4911 46.4138 48.3267 46.7071 48.0814 47.0818ZM45.6396 42.5712C45.6869 42.4705 45.7258 42.3646 45.7836 42.2703C45.8606 42.145 45.9523 42.0286 46.0377 41.9085C46.0693 42.0571 46.139 42.21 46.1224 42.353C46.1037 42.5143 46.0263 42.6784 45.9395 42.8198C45.8361 42.9882 45.6956 43.1337 45.5712 43.289C45.5595 43.0744 45.5478 42.8597 45.6396 42.5712ZM44.4989 45.5711C44.3096 45.975 44.1211 46.3793 43.9302 46.7825C43.8948 46.8574 43.8494 46.9277 43.8087 47.0002C43.7894 46.9227 43.7325 46.8301 43.7568 46.7703C43.9769 46.2247 44.2113 45.6848 44.4414 45.1433C44.4705 45.2268 44.4994 45.3103 44.4989 45.5711ZM40.5723 57.5862C40.4131 57.2638 40.2484 56.9437 40.1033 56.6152C40.0889 56.5825 40.1929 56.4977 40.242 56.4371C40.3798 56.713 40.5231 56.9864 40.6515 57.2666C40.6841 57.3374 40.6691 57.4299 40.5723 57.5862ZM49.2373 43.4463C49.5718 43.5749 49.6206 43.676 49.4798 44.126C49.4415 44.2485 49.2989 44.3386 49.2041 44.4435C49.1906 44.2579 49.1706 44.0722 49.1665 43.8863C49.1645 43.7991 49.193 43.7112 49.2373 43.4463ZM38.7544 44.9753C38.41 45.0041 38.0657 45.0347 37.7207 45.0517C37.7126 45.052 37.6967 44.9014 37.6844 44.8213C37.9299 44.8236 38.1755 44.8224 38.4208 44.8302C38.5077 44.8329 38.5939 44.8573 38.7544 44.9753ZM37.5249 47.4134C37.582 47.6184 37.6405 47.8229 37.6891 48.0299C37.6908 48.0368 37.5901 48.0675 37.5372 48.0871C37.4738 47.8527 37.4106 47.6182 37.5249 47.4134Z" fill="#FFFF00"/>
</svg>
