<svg width="38" height="49" viewBox="0 0 38 49" fill="none" xmlns="http://www.w3.org/2000/svg">
<g clip-path="url(#clip0_6_590)">
<path d="M49.9991 28.8476L25.1964 4.17969C24.4728 4.24512 23.7491 4.37598 23.0254 4.57228L49.6701 31.0723C49.8017 30.2871 49.9333 29.5673 49.9991 28.8476Z" fill="#FFFF00"/>
<path d="M43.6176 10.5265C41.5781 8.49815 39.2097 6.92778 36.5781 5.81543L48.4202 17.5932C47.236 14.9105 45.6571 12.5549 43.6176 10.5265Z" fill="#FFFF00"/>
<path d="M11.9081 41.9993C13.9476 44.0277 16.316 45.5981 18.9476 46.7104L7.10547 34.9326C8.28968 37.6153 9.86863 39.9709 11.9081 41.9993Z" fill="#FFFF00"/>
<path d="M40.9856 44.2248L9.66982 13.0791C9.34087 13.5371 8.94613 14.0606 8.61719 14.584L39.4067 45.2063C39.9988 44.9445 40.5251 44.6174 40.9856 44.2248Z" fill="#FFFF00"/>
<path d="M32.5004 48.0195L5.85567 21.5195C5.7241 22.2393 5.59252 22.959 5.46094 23.6788L30.3294 48.4121C31.053 48.3467 31.7767 48.2158 32.5004 48.0195Z" fill="#FFFF00"/>
<path d="M46.8417 37.8781L16.0522 7.25586C15.5259 7.58302 14.9996 7.91018 14.5391 8.30277L45.8549 39.4485C46.1838 38.925 46.5127 38.4015 46.8417 37.8781Z" fill="#FFFF00"/>
<path d="M44.5401 21.1269L19.7375 -3.54102C19.0138 -3.47558 18.2901 -3.34473 17.5664 -3.14843L44.1454 23.3516C44.2769 22.6318 44.4085 21.9121 44.5401 21.1269Z" fill="#074942"/>
<path d="M44.5401 21.1269L19.7375 -3.54102C19.0138 -3.47558 18.2901 -3.34473 17.5664 -3.14843L44.1454 23.3516C44.2769 22.6318 44.4085 21.9121 44.5401 21.1269Z" fill="#074942"/>
<path d="M38.0922 2.87129C36.0527 0.842879 33.6843 -0.727498 31.0527 -1.83984L42.8948 9.93796C41.7764 7.25524 40.1317 4.89969 38.0922 2.87129Z" fill="#074942"/>
<path d="M38.0922 2.87129C36.0527 0.842879 33.6843 -0.727498 31.0527 -1.83984L42.8948 9.93796C41.7764 7.25524 40.1317 4.89969 38.0922 2.87129Z" fill="#074942"/>
<path d="M6.44716 34.344C8.48664 36.3724 10.8551 37.9428 13.4866 39.0551L1.64453 27.2773C2.76295 29.9601 4.40769 32.3156 6.44716 34.344Z" fill="#074942"/>
<path d="M6.44716 34.344C8.48664 36.3724 10.8551 37.9428 13.4866 39.0551L1.64453 27.2773C2.76295 29.9601 4.40769 32.3156 6.44716 34.344Z" fill="#074942"/>
<path d="M35.4602 36.5695L4.14442 5.42383C3.81547 5.88185 3.42074 6.40531 3.0918 6.92877L33.8813 37.551C34.4734 37.2893 34.9997 36.9621 35.4602 36.5695Z" fill="#074942"/>
<path d="M35.4602 36.5695L4.14442 5.42383C3.81547 5.88185 3.42074 6.40531 3.0918 6.92877L33.8813 37.551C34.4734 37.2893 34.9997 36.9621 35.4602 36.5695Z" fill="#074942"/>
<path d="M27.0395 40.3643L0.394737 13.8643C0.263158 14.584 0.131579 15.3038 0 16.0235L24.8026 40.6914C25.5263 40.626 26.3158 40.5606 27.0395 40.3643Z" fill="#074942"/>
<path d="M27.0395 40.3643L0.394737 13.8643C0.263158 14.584 0.131579 15.3038 0 16.0235L24.8026 40.6914C25.5263 40.626 26.3158 40.5606 27.0395 40.3643Z" fill="#074942"/>
<path d="M41.3808 30.2219L10.5913 -0.400391C10.065 -0.0732301 9.53865 0.25393 9.07812 0.646523L40.3939 31.7922C40.7229 31.2688 41.0518 30.7453 41.3808 30.2219Z" fill="#074942"/>
<path d="M41.3808 30.2219L10.5913 -0.400391C10.065 -0.0732301 9.53865 0.25393 9.07812 0.646523L40.3939 31.7922C40.7229 31.2688 41.0518 30.7453 41.3808 30.2219Z" fill="#074942"/>
</g>
<defs>
<clipPath id="clip0_6_590">
<rect width="50" height="53" fill="white" transform="translate(0 -4)"/>
</clipPath>
</defs>
</svg>
