<svg width="102" height="102" viewBox="0 0 102 102" fill="none" xmlns="http://www.w3.org/2000/svg">
<path d="M64.1107 62.081C68.5909 57.3311 73.0605 52.6966 77.3682 47.9158C78.1269 47.0738 78.7773 46.9306 79.7173 46.897C80.0876 46.8838 80.5037 46.6339 80.7791 46.3675C80.8653 46.284 80.6389 45.7024 80.4168 45.5083C79.8963 45.0539 79.3169 44.6512 78.7143 44.3112C78.1195 43.9758 77.4668 43.7428 76.8393 43.4654C71.524 41.116 66.1727 38.8443 60.9088 36.3845C58.2661 35.1498 55.7861 33.567 53.2229 32.1591C52.9543 32.0116 52.6208 31.9828 52.3173 31.8988C52.2598 32.4086 51.992 33.0456 52.2019 33.3934C52.4254 33.764 53.1073 33.8478 53.5749 34.0849C53.7231 34.1599 53.8259 34.3246 53.9493 34.4484C53.7988 34.4946 53.6093 34.6243 53.5039 34.5748C51.7261 33.7397 49.7579 33.951 47.9097 33.5266C47.0433 33.3275 46.2118 32.9761 45.346 32.7736C45.106 32.7174 44.7995 32.948 44.5236 33.0471C44.699 33.3856 44.7997 33.814 45.0694 34.039C45.3962 34.3116 45.8512 34.499 46.2766 34.571C47.5519 34.7865 47.7978 35.8269 47.8875 36.7728C47.9863 37.8121 47.9221 38.9333 47.6218 39.9258C47.3107 40.9544 46.607 41.8592 46.1295 42.8448C45.9941 43.1243 46.0491 43.4962 46.0168 43.8257C46.2894 43.7806 46.6091 43.8104 46.8246 43.6746C47.2836 43.3852 47.7311 43.0511 48.1064 42.6611C48.9238 41.8115 49.6624 41.7694 49.9549 42.8767C50.2819 44.1158 51.0786 44.4608 52.0294 44.822C52.9736 45.1805 53.3457 45.8756 53.1625 46.8402C52.9814 47.7951 52.5333 48.3125 51.418 48.5547C49.0477 49.0695 46.7228 49.8311 44.4211 50.6146C41.3636 51.655 38.3553 52.8393 35.3085 53.9126C32.1438 55.0275 28.9587 56.084 25.782 57.1648C25.5136 57.2559 25.2168 57.2933 24.9773 57.432C24.5737 57.6658 24.2056 57.9607 23.8226 58.23C24.2193 58.4858 24.5905 58.8054 25.0206 58.9767C25.3593 59.1115 25.7707 59.0638 26.1499 59.097C25.749 59.2388 25.3494 59.3841 24.9469 59.5213C23.9135 59.8735 22.8488 60.156 21.8621 60.6095C21.5387 60.7581 21.4164 61.346 21.2023 61.7332C21.5884 61.7905 22.0229 61.9933 22.3532 61.8829C26.2246 60.5886 30.0416 59.1161 33.9514 57.9554C37.7412 56.8303 41.6327 56.0529 45.4583 55.0417C47.1755 54.5878 48.8384 53.9304 50.5306 53.3789C51.0327 53.2154 51.6128 52.8918 52.0415 53.0225C52.4153 53.1367 52.8514 53.777 52.8701 54.202C52.9576 56.166 52.9931 58.1416 52.8645 60.1012C52.8175 60.8165 52.2153 61.481 51.959 62.2017C51.7698 62.7329 51.4474 63.5201 51.6764 63.8419C52.4348 64.9076 52.1125 65.9047 51.9032 66.9873C51.7731 67.6603 51.7563 68.3981 51.8856 69.069C52.099 70.1761 54.1065 70.6981 54.9697 69.9224C56.7484 68.3242 58.4957 66.6901 60.3035 65.1259C61.5082 64.0836 62.7952 63.1365 64.1107 62.081ZM65.6174 43.7737C65.7047 43.7737 65.7933 43.763 65.8787 43.7754C66.7002 43.8948 67.521 44.0182 68.342 44.1405C67.5464 44.1057 66.7497 44.0841 65.9557 44.0253C65.7941 44.0133 65.6426 43.8612 65.3555 43.7737C64.947 43.8329 64.5315 43.9718 64.1313 43.9365C62.8718 43.8249 61.6165 43.6578 60.3638 43.4824C60.2271 43.4633 60.117 43.2511 59.9946 43.1285C60.0976 43.0811 60.2083 42.9805 60.3027 42.9942C62.0317 43.246 63.7589 43.5113 65.6174 43.7737ZM63.3902 54.6663C64.8713 53.7077 66.3467 52.7402 67.8404 51.8017C68.0251 51.6858 68.3063 51.724 68.5425 51.6906C68.3853 51.9072 68.2646 52.1679 68.065 52.3329C66.7027 53.4599 65.3284 54.5722 63.9493 55.6785C62.3446 56.9653 60.7373 58.2495 59.1146 59.5136C58.8514 59.7188 58.5036 59.8147 58.1947 59.961C58.3498 59.6005 58.4123 59.14 58.6751 58.8961C60.1766 57.5013 61.7261 56.1581 63.3902 54.6663ZM55.005 57.291C54.8302 56.1875 54.6045 55.0885 54.5076 53.9783C54.4717 53.5671 54.7389 53.1295 54.8679 52.7039C55.1391 52.9715 55.6174 53.2189 55.6459 53.5103C55.7668 54.75 55.7736 56.0028 55.7566 57.2501C55.7553 57.3546 55.2671 57.4524 55.005 57.291ZM61.818 61.2281C61.3911 61.5681 60.9768 61.9263 60.5296 62.2367C60.4013 62.3259 60.1776 62.2774 59.9979 62.2921C60.0502 62.1427 60.0592 61.9475 60.1614 61.8512C61.2566 60.8198 62.3586 59.7948 63.4844 58.7971C63.6005 58.6942 63.8832 58.78 64.0887 58.778C63.9928 58.9328 63.9206 59.1104 63.7969 59.238C63.1885 59.8649 62.5662 60.4784 61.818 61.2281ZM58.6736 52.829C58.7884 51.9947 59.3704 52.0997 59.9037 52.286C59.9574 52.3047 59.8863 53.0305 59.6993 53.3123C59.3954 53.7703 58.9477 54.1325 58.5607 54.5351C58.5546 54.01 58.5486 53.4851 58.6736 52.829ZM63.3902 51.2541C63.9033 50.9151 64.4077 50.5611 64.9357 50.2471C65.0759 50.1638 65.2889 50.2032 65.4684 50.1862C65.4189 50.3352 65.4155 50.5418 65.3129 50.624C64.5982 51.1964 63.8675 51.7498 63.1287 52.2909C63.0175 52.3725 62.8365 52.358 62.6877 52.3878C62.7242 52.2078 62.7188 52.0027 62.808 51.8547C62.9171 51.6732 63.1052 51.5397 63.3902 51.2541ZM55.5291 47.0545C55.4417 47.3244 55.3647 47.5982 55.2627 47.8621C55.2111 47.9958 55.1143 48.1118 55.0379 48.2358C54.9395 48.1337 54.7918 48.0478 54.7523 47.9265C54.6385 47.5781 54.4606 47.1991 54.5107 46.8624C54.5624 46.5144 54.852 46.2017 55.0377 45.8735C55.2014 46.1797 55.3653 46.4859 55.5291 47.0545ZM57.7563 38.7868C57.8375 38.8743 57.9187 38.9618 57.9999 39.0493C57.3487 39.0493 56.692 39.0966 56.0498 39.0206C55.8556 38.9975 55.7016 38.6323 55.5291 38.4239C55.7612 38.3698 56.0063 38.2403 56.2229 38.2774C56.6979 38.3586 57.1589 38.5244 57.7563 38.7868ZM51.8606 43.3801C51.7045 43.3363 51.5429 43.3059 51.3936 43.2454C51.1949 43.165 51.0056 43.0611 50.8125 42.9673C51.0184 42.8861 51.2215 42.7491 51.431 42.7386C51.6673 42.7268 51.9217 42.7986 52.1458 42.8893C52.4126 42.9975 52.6556 43.1644 52.9087 43.3059C52.603 43.3743 52.2972 43.4427 51.8606 43.3801ZM56.4462 44.2986C57.0721 44.4736 57.6985 44.6474 58.3238 44.8249C58.44 44.8577 58.5519 44.906 58.6659 44.9471C58.5592 44.9935 58.4398 45.0974 58.3479 45.077C57.5109 44.8917 56.6786 44.6847 55.8451 44.4841C55.9582 44.4222 56.0712 44.3605 56.4462 44.2986ZM74.6578 47.0545C74.2326 47.3607 73.8122 47.6744 73.3749 47.9618C73.3314 47.9905 73.1845 47.8614 73.0856 47.8054C73.4491 47.541 73.8076 47.2694 74.1793 47.0175C74.2733 46.9537 74.4098 46.9529 74.6578 47.0545ZM52.2537 37.9993C52.3582 37.4875 52.4917 37.3932 53.1723 37.4874C53.3575 37.513 53.5212 37.6963 53.6949 37.8073C53.4313 37.8713 53.1692 37.9446 52.9031 37.9953C52.7782 38.0191 52.6451 37.9993 52.2537 37.9993ZM56.9703 52.6978C57.0945 53.1858 57.2211 53.6733 57.3285 54.1649C57.331 54.1766 57.1184 54.2356 57.006 54.2725C56.9505 53.9191 56.8897 53.5665 56.842 53.212C56.825 53.0865 56.8393 52.9568 56.9703 52.6978ZM60.7697 53.8788C61.0507 53.7476 61.3305 53.6142 61.6163 53.4947C61.6258 53.4907 61.6942 53.628 61.7351 53.6992C61.4134 53.8467 61.0916 53.994 60.7697 53.8788Z" fill="#7BECAB" fill-opacity="0.78"/>
</svg>
