<svg width="46" height="46" viewBox="0 0 46 46" fill="none" xmlns="http://www.w3.org/2000/svg">
<path d="M33.0625 44.0755H12.9375C6.6125 44.0755 1.4375 38.9073 1.4375 32.5905V12.4918C1.4375 6.17508 6.6125 1.00684 12.9375 1.00684H33.0625C39.3875 1.00684 44.5625 6.17508 44.5625 12.4918V32.5905C44.5625 38.9073 39.3875 44.0755 33.0625 44.0755Z" fill="#074942"/>
<path d="M22.9995 11.2012C16.4636 11.2012 11.1465 16.5114 11.1465 23.0387C11.1465 29.5657 16.4636 34.8756 22.9995 34.8756C29.5353 34.8756 34.8524 29.5657 34.8524 23.0387C34.8524 16.5114 29.5353 11.2012 22.9995 11.2012ZM22.9995 30.7993C18.7143 30.7993 15.2278 27.3179 15.2278 23.0384C15.2278 18.7586 18.7141 15.2769 22.9995 15.2769C27.2848 15.2769 30.7711 18.7586 30.7711 23.0384C30.7711 27.3179 27.2846 30.7993 22.9995 30.7993Z" fill="white"/>
<path d="M35.3504 7.74512C34.5641 7.74512 33.7916 8.06304 33.2363 8.6201C32.6782 9.17443 32.3574 9.94615 32.3574 10.7342C32.3574 11.5198 32.6785 12.2912 33.2363 12.8483C33.7913 13.4026 34.5641 13.7232 35.3504 13.7232C36.1394 13.7232 36.9095 13.4026 37.4672 12.8483C38.025 12.2912 38.3434 11.5195 38.3434 10.7342C38.3434 9.94615 38.025 9.17443 37.4672 8.6201C36.9122 8.06304 36.1394 7.74512 35.3504 7.74512Z" fill="white"/>
</svg>
