<svg width="45" height="46" viewBox="0 0 45 46" fill="none" xmlns="http://www.w3.org/2000/svg">
<g clip-path="url(#clip0_32_92)">
<path d="M32.5812 0.49707H12.418C5.57073 0.49707 0 6.06079 0 12.8992V33.036C0 39.8746 5.57073 45.438 12.418 45.438H32.5812C39.429 45.438 44.9997 39.8743 44.9997 33.036V12.8992C45 6.06079 39.429 0.49707 32.5812 0.49707ZM41.0074 33.036C41.0074 37.6759 37.2275 41.4507 32.5814 41.4507H12.418C7.77225 41.4509 3.99259 37.6759 3.99259 33.036V12.8992C3.99259 8.25944 7.77225 4.48445 12.418 4.48445H32.5812C37.2272 4.48445 41.0071 8.25944 41.0071 12.8992V33.036H41.0074Z" fill="#074942"/>
<path d="M22.4996 11.3877C16.1058 11.3877 10.9043 16.5825 10.9043 22.9678C10.9043 29.353 16.1058 34.5475 22.4996 34.5475C28.8933 34.5475 34.0949 29.353 34.0949 22.9678C34.0949 16.5825 28.8933 11.3877 22.4996 11.3877ZM22.4996 30.5598C18.3076 30.5598 14.8969 27.1541 14.8969 22.9676C14.8969 18.7808 18.3074 15.3748 22.4996 15.3748C26.6918 15.3748 30.1023 18.7808 30.1023 22.9676C30.1023 27.1541 26.6915 30.5598 22.4996 30.5598Z" fill="#074942"/>
<path d="M34.5822 8.00684C33.813 8.00684 33.0573 8.31785 32.514 8.86279C31.9681 9.40508 31.6543 10.16 31.6543 10.9309C31.6543 11.6994 31.9684 12.4541 32.514 12.999C33.057 13.5413 33.813 13.855 34.5822 13.855C35.3541 13.855 36.1074 13.5413 36.653 12.999C37.1987 12.4541 37.5101 11.6992 37.5101 10.9309C37.5101 10.16 37.1987 9.40508 36.653 8.86279C36.11 8.31785 35.3541 8.00684 34.5822 8.00684Z" fill="#074942"/>
</g>
<defs>
<clipPath id="clip0_32_92">
<rect width="45" height="44.9412" fill="white" transform="translate(0 0.49707)"/>
</clipPath>
</defs>
</svg>
