<svg width="56" height="56" viewBox="0 0 56 56" fill="none" xmlns="http://www.w3.org/2000/svg">
<path d="M28.0007 50.1664C40.243 50.1664 50.1673 40.242 50.1673 27.9997C50.1673 15.7574 40.243 5.83301 28.0007 5.83301C15.7583 5.83301 5.83398 15.7574 5.83398 27.9997C5.83398 40.242 15.7583 50.1664 28.0007 50.1664Z" stroke="#FFFF00" stroke-width="2" stroke-linecap="round" stroke-linejoin="round"/>
<path d="M32.666 25.667C32.666 23.7339 35.2777 22.167 38.4993 22.167C41.721 22.167 44.3327 23.7339 44.3327 25.667" stroke="#FFFF00" stroke-width="2" stroke-linecap="round" stroke-linejoin="round"/>
<path d="M14 25.667C14 23.7339 16.6117 22.167 19.8333 22.167C23.055 22.167 25.6667 23.7339 25.6667 25.667" stroke="#FFFF00" stroke-width="2" stroke-linecap="round" stroke-linejoin="round"/>
<path d="M18.666 36.75C26.1161 46.5392 30.916 46.6667 36.166 36.75" stroke="#FFFF00" stroke-width="2" stroke-linecap="round" stroke-linejoin="round"/>
</svg>
