<svg width="114" height="114" viewBox="0 0 114 114" fill="none" xmlns="http://www.w3.org/2000/svg">
<g clip-path="url(#clip0_32_61)">
<path d="M26.9786 23.4562C24.8146 23.0186 23.2719 21.7024 21.7195 20.4266C20.9685 19.8095 20.3262 19.0609 19.605 18.4041C19.4398 18.2539 19.1432 18.1613 18.926 18.1895C18.8044 18.2051 18.6226 18.5308 18.637 18.703C18.7868 20.5172 18.4793 22.3645 19.1061 24.1489C19.3185 24.7537 19.5763 25.0339 20.1944 24.8126C20.9396 24.5461 21.5685 24.7787 22.2125 25.1579C23.0509 25.6513 23.9361 26.0639 24.7851 26.5398C25.8513 27.1372 26.8433 27.8291 27.6895 28.735C28.3002 29.3886 28.3904 30.1082 27.8135 30.7303C27.0524 31.551 26.0917 31.6613 25.0927 31.3908C24.4995 31.2302 23.9289 30.9384 23.3908 30.6309C22.3815 30.0538 21.4073 29.4159 20.4083 28.8203C20.2415 28.7207 19.9173 28.6048 19.8509 28.6741C19.6969 28.8354 19.5329 29.1437 19.59 29.3238C19.8394 30.1134 20.1623 30.8803 20.4661 31.6522C20.9593 32.9057 21.9074 33.8793 22.5567 35.0403C23.0205 35.8697 23.6096 36.0886 24.5597 35.8083C26.0509 35.3685 27.2293 36.0802 28.4242 36.7624C28.8603 37.0114 29.3341 37.2062 29.3827 37.8578C29.4323 38.5201 28.6033 39.8427 27.8652 40.1152C26.7765 40.5168 25.8166 40.2617 24.9593 39.5301C24.5234 39.1581 24.1045 38.7659 23.6832 38.3773C23.1642 37.899 22.7258 38.0499 22.2786 38.5047C21.661 39.1329 21.5218 39.8388 21.7484 40.6826C21.9563 41.456 22.299 41.9628 23.1555 42.189C24.1379 42.4485 25.143 42.6808 26.0437 43.2449C26.4556 43.5026 27.0515 43.459 27.5604 43.568C30.2261 44.1394 32.9135 44.5837 35.626 44.8407C37.9845 45.0641 40.3548 45.1643 42.7107 45.41C43.6202 45.505 44.5174 45.8082 45.3966 46.0912C46.9025 46.5761 48.4501 46.8872 49.9203 47.5418C51.9874 48.4621 53.6746 49.7791 55.1857 51.4382C56.3963 52.7672 57.2146 54.2244 57.5176 55.9963C57.6634 56.85 57.8845 57.6942 58.1245 58.5273C58.3206 59.2081 58.2834 59.8153 57.9507 60.4567C57.5717 61.1874 57.3213 61.9844 56.9574 62.724C56.8438 62.955 56.5667 63.2074 56.3253 63.2562C55.127 63.4986 53.9134 63.8489 52.7093 63.8323C51.2287 63.8121 49.7192 64.0174 48.2532 63.6066C48.0202 63.5414 47.7281 63.5379 47.5668 63.3913C46.9977 62.8741 46.4423 62.3339 45.9431 61.7498C45.5779 61.3222 45.4985 60.8477 45.7482 60.2462C46.7464 57.8401 45.3542 56.1175 43.4856 55.373C42.0771 54.8119 40.578 54.7798 39.1136 54.5657C36.4592 54.1776 33.7922 53.8768 31.1332 53.5198C29.253 53.2675 27.4707 52.5541 25.6243 52.2144C23.6193 51.8453 21.5744 51.3129 19.4978 51.7705C18.1468 52.0682 17.6396 53.4356 18.2382 54.7037C18.6253 55.5243 18.9939 56.3704 18.8856 57.376C18.8033 58.1427 19.1082 58.9439 19.0958 59.7274C19.075 61.0435 18.2461 61.7303 16.955 61.6655C15.4657 61.5911 13.9755 61.54 12.4855 61.4836C12.4022 61.4803 12.2986 61.5629 12.2359 61.5349C11.2493 61.0933 10.2295 60.7045 9.30783 60.1521C9.01475 59.9765 8.823 59.3378 8.87121 58.9468C8.95933 58.2319 8.7917 57.8161 8.21611 57.338C6.6912 56.0715 5.77506 54.3923 5.33704 52.4513C5.05976 51.2238 4.67076 50.0157 4.47991 48.7761C4.25079 47.2883 4.1296 45.7608 4.73483 44.3209C5.19969 43.2154 5.86052 42.3163 7.20722 42.0995C7.93095 41.9829 8.75803 41.994 9.32039 41.3523C10.5652 41.4109 11.7159 40.7872 12.9652 40.8572C13.5303 40.8889 14.1257 40.9811 14.6599 40.8509C16.0191 40.5196 17.3319 40.8779 18.6578 41.0007C19.2171 41.0524 19.5217 40.9685 19.5679 40.3504C19.5974 39.9532 19.7241 39.5642 19.7901 39.1688C19.9443 38.2444 20.4168 37.4908 21.1289 36.9271C21.6514 36.5136 21.4929 36.284 21.1514 35.838C20.1532 34.534 19.2732 33.139 18.2713 31.8378C17.7639 31.1793 17.7109 30.536 17.7733 29.7487C17.8716 28.5046 17.6322 27.2444 17.9481 25.9979C18.0143 25.7375 17.9115 25.3448 17.7408 25.1285C17.0076 24.1988 17.0259 23.1153 17.0199 22.0348C17.0144 20.9819 16.9624 19.9193 17.0839 18.8789C17.1905 17.9672 17.5099 17.0806 17.7343 16.1828C17.7832 15.9877 17.8923 15.7826 17.8653 15.5979C17.6948 14.4282 17.5024 13.2612 17.3003 12.0963C17.0944 10.9099 17.0806 9.74123 17.5321 8.60099C17.5919 8.44963 17.5931 8.22233 17.7011 8.15075C18.8774 7.37156 18.6758 6.32485 18.3288 5.21558C17.622 2.95704 17.5508 0.644723 18.0535 -1.64221C18.2105 -2.35674 18.7979 -3.01565 19.3059 -3.59666C19.5758 -3.90516 20.0869 -4.11829 20.5082 -4.1542C21.4511 -4.23476 21.554 -4.82894 21.5348 -5.55015C21.5184 -6.16446 21.5692 -6.80041 21.4265 -7.38702C21.0822 -8.80125 21.3946 -10.0908 22.0552 -11.3082C22.6303 -12.3672 23.3028 -13.3731 23.9324 -14.4024C23.9776 -14.4764 24.0064 -14.5936 24.0706 -14.618C25.6367 -15.2174 25.9698 -16.8061 26.7776 -18.0086C27.473 -19.0436 28.2827 -19.9042 29.3762 -20.5722C29.9616 -20.9301 30.5687 -21.1386 31.146 -21.1553C32.4638 -21.1935 33.7995 -21.2961 35.0891 -20.7116C35.7621 -20.4066 36.5748 -20.4182 37.3194 -20.263C38.0834 -20.1038 38.4279 -19.435 38.7005 -18.8464C38.908 -18.3983 39.2045 -17.8536 38.8505 -17.2556C38.5656 -16.7744 38.3336 -16.6652 37.865 -17.016C37.0509 -17.6252 36.2288 -18.2303 35.3656 -18.765C33.9522 -19.6402 31.3163 -19.6512 29.9876 -18.7611C28.9295 -18.0518 28.173 -17.0411 27.7107 -15.8564C27.3867 -15.0262 27.5364 -14.8426 28.4553 -14.6034C30.8051 -13.9916 32.5685 -12.5731 33.9164 -10.5969C34.7212 -9.41741 35.0537 -8.15361 34.3707 -6.80279C33.7817 -5.63811 33.0381 -5.29341 31.5768 -5.57693C30.5521 -5.77577 29.5011 -5.98961 28.557 -6.41086C27.7141 -6.78684 26.9295 -7.45451 26.5916 -8.34426C26.1256 -9.57141 25.3419 -10.7419 25.6231 -12.1791C25.6609 -12.3726 25.4389 -12.617 25.3374 -12.8377C25.187 -12.7041 25.0323 -12.5752 24.8872 -12.4361C23.7894 -11.3826 23.4566 -10.0671 23.236 -8.57967C23.0529 -7.34645 22.9452 -6.20308 23.359 -5.03519C23.4095 -4.89232 23.6703 -4.67742 23.7315 -4.70703C24.8415 -5.24571 25.8334 -4.61285 26.6842 -4.18652C28.4924 -3.2802 30.297 -2.26876 31.8615 -1.00098C33.3922 0.23956 33.5885 1.65266 31.5658 3.08595C30.68 3.71352 29.9122 3.6787 28.9319 3.21672C27.2409 2.41972 25.6435 1.52362 24.3708 0.143223C23.8029 -0.472651 23.3211 -1.17393 22.8436 -1.86636C22.2216 -2.76847 21.6502 -2.8601 20.7633 -2.17475C19.6908 -1.3456 19.3956 -0.124772 19.2346 1.09395C19.1185 1.97234 19.0769 2.96435 19.3781 3.76366C19.6439 4.4685 19.8156 5.20844 20.1258 5.88438C20.2455 6.14524 20.8205 6.44346 21.0626 6.36009C22.4095 5.89607 23.5953 6.48084 24.7569 6.90698C26.4641 7.53326 28.1256 8.30088 29.7587 9.10609C30.687 9.56364 31.2915 10.4423 31.7872 11.3308C31.9305 11.5875 31.855 12.1176 31.6731 12.3756C31.1945 13.0538 30.5637 13.6873 29.68 13.6843C27.375 13.6764 25.2455 13.1171 23.4749 11.4998C22.8557 10.9343 22.1093 10.5101 21.4318 10.0066C21.0666 9.73512 20.6269 9.49487 20.3934 9.12959C20.0122 8.5337 19.6917 8.71249 19.4754 9.14488C19.2056 9.68432 18.9441 10.2834 18.9059 10.8718C18.8252 12.1134 18.7901 13.3745 19.2361 14.5795C19.3142 14.7906 19.2329 15.1298 19.6677 15.0397C20.9826 14.7673 22.1511 15.3674 23.3114 15.7899C25.2044 16.4792 26.9217 17.4951 28.201 19.1289C28.7315 19.8061 29.0361 20.57 29.1546 21.4067C29.3327 22.6666 28.3223 23.6487 26.9786 23.4562ZM52.2 51.1445C51.3146 50.1192 50.0643 49.7497 48.8612 49.319C47.295 48.7586 45.7432 48.0584 44.1234 47.7733C41.9588 47.3923 39.7293 47.4008 37.5377 47.1541C34.6345 46.827 31.733 46.4652 28.8463 46.0175C27.4234 45.7968 26.0421 45.3171 24.6285 45.0191C23.9243 44.8707 23.3107 44.5843 22.6752 44.2635C21.6501 43.7458 20.5906 43.21 19.4832 42.9603C17.307 42.4696 15.0713 42.2985 12.8544 42.6666C11.4058 42.9071 9.97284 43.2812 8.56094 43.6919C6.91051 44.1717 6.44039 44.8272 6.34205 46.5688C6.31452 47.0569 6.30128 47.578 6.43832 48.0373C6.7538 49.0955 7.01272 50.2062 7.10406 51.2572C7.18657 52.2073 7.37936 53.0316 7.81784 53.8183C8.31936 54.7178 8.84694 55.6645 9.89496 56.0062C10.6488 56.252 11.4621 56.3218 12.2527 56.4453C13.5178 56.6431 14.786 56.8199 16.0529 57.007C16.2502 57.0362 16.4464 57.0726 16.6434 57.1054C16.6252 56.8944 16.6375 56.6748 16.5815 56.4744C16.5039 56.197 16.3223 55.9425 16.2786 55.6634C16.176 55.0085 16.2007 54.3273 16.0438 53.6885C15.7853 52.6361 15.9573 51.6688 16.6121 50.869C17.2698 50.0655 18.3138 49.6351 19.2525 49.5276C20.8366 49.3461 22.4511 49.6521 24.0181 50.0286C28.3475 51.0689 32.6792 52.1055 37.1546 52.2578C39.5514 52.3396 41.8387 52.9116 44.1123 53.6146C45.9969 54.1974 47.3559 55.3279 48.0025 57.2139C48.1929 57.7693 48.1906 58.3883 48.3465 58.9592C48.4158 59.2129 48.6119 59.5362 48.8309 59.6226C49.2702 59.7955 49.7709 59.9265 50.2359 59.8992C51.776 59.8086 53.2981 59.8808 54.8285 60.0807C55.8623 60.2159 56.3683 59.6038 56.2571 58.5646C56.2048 58.0757 56.2638 57.5653 56.1479 57.0952C56.0217 56.5821 55.7583 56.1013 55.5423 55.612C55.3111 55.0888 55.1514 54.5047 54.8084 54.0663C54.0413 53.085 53.1799 52.178 52.2 51.1445ZM31.5389 -7.09588C31.7492 -7.14635 31.9605 -7.19226 32.1695 -7.24813C33.0777 -7.49093 33.2827 -7.89449 33.1472 -8.80579C33.0138 -9.70246 32.3353 -10.1916 31.8552 -10.8442C30.7406 -12.3589 29.1274 -12.9122 27.4087 -13.283C27.3195 -13.3022 27.0731 -13.0692 27.0748 -12.9561C27.0899 -11.9885 27.5206 -10.1357 27.929 -9.37835C28.1164 -9.03122 28.3527 -8.62931 28.6758 -8.45219C29.5465 -7.97467 30.476 -7.60477 31.5389 -7.09588ZM28.8324 10.0233C27.5002 9.49277 26.1741 8.94562 24.833 8.43851C24.1154 8.16727 23.3841 7.90041 22.635 7.75837C22.2672 7.68859 21.8449 7.90784 21.4474 7.996C21.6569 8.2241 21.8719 8.44738 22.0724 8.68289C22.1227 8.74218 22.1021 8.87227 22.1569 8.91597C23.8991 10.3011 25.6595 11.6699 27.9353 12.0475C28.5261 12.1454 29.1593 12.1561 29.7465 12.0545C30.2774 11.9624 30.4136 11.3626 30.0391 10.9905C29.7177 10.6712 29.3413 10.4076 28.8324 10.0233ZM21.8396 16.5219C21.5523 16.5463 21.249 16.5199 20.9809 16.6051C20.3549 16.8041 20.2664 17.156 20.7821 17.6392C21.7702 18.5652 22.7679 19.4902 23.8386 20.3152C24.6521 20.9419 25.5734 21.4336 26.4727 21.9387C26.6973 22.0649 27.1569 22.1374 27.2731 22.0134C27.5101 21.7604 27.7061 21.3533 27.6952 21.0167C27.6844 20.6874 27.4319 20.3407 27.2224 20.0468C25.9261 18.2281 24.0237 17.3251 21.8396 16.5219ZM31.4013 1.23887C31.463 0.620741 31.2924 0.193402 30.7709 -0.271356C29.4181 -1.47708 27.8277 -2.19836 26.192 -2.85669C25.6748 -3.06474 25.1109 -3.18515 24.5571 -3.26254C24.1928 -3.31365 23.9543 -3.04716 24.1876 -2.70249C24.6378 -2.03847 25.1255 -1.40076 25.6485 -0.792484C26.5006 0.198203 27.6666 0.78268 28.8056 1.32206C29.4979 1.64986 30.3859 2.23763 31.4013 1.23887ZM20.8639 26.9324C21.0368 27.6966 21.7724 27.8537 22.2349 28.2914C23.2122 29.2164 24.3985 29.3378 25.542 29.6873C25.763 29.7548 26.0068 29.7488 26.2401 29.7766C26.2102 29.4894 26.2456 29.1724 26.132 28.9233C26.0218 28.6817 25.7921 28.4518 25.5573 28.3172C24.346 27.6215 23.1348 26.9203 21.8803 26.3101C21.5624 26.1555 20.9522 25.9559 20.8639 26.9324ZM24.7409 37.517C24.9597 37.6513 25.1693 37.8047 25.3993 37.9159C25.8035 38.1116 26.2065 38.3545 26.6365 38.4363C26.9174 38.4897 27.245 38.2936 27.5519 38.2092C27.4751 37.9312 27.4031 37.4137 27.321 37.4119C26.4383 37.3939 25.5924 36.5304 24.7409 37.517ZM61.4559 73.5599C61.171 74.09 60.8595 73.9151 60.4898 73.7342C59.3334 73.1681 58.6751 72.123 57.9437 71.1501C57.5612 70.6417 57.1806 70.1185 56.8976 69.5526C56.7083 69.1737 56.5368 68.6697 56.6302 68.2892C56.83 67.4744 57.874 67.3421 58.5112 68.0239C58.7507 68.2799 58.8898 68.6353 59.053 68.9564C59.5469 69.9275 60.0187 70.91 60.5224 71.8761C60.7995 72.4076 61.1231 72.915 61.4559 73.5599ZM49.5754 69.7167C49.9776 71.3752 49.5148 72.8174 49.0512 74.2302C48.7933 75.0161 48.0111 75.2531 47.2376 75.3656C46.8465 75.4226 46.8304 75.2386 46.9224 74.9238C47.0226 74.5805 46.9814 74.1656 47.1588 73.8802C47.8661 72.7429 47.5795 71.5131 47.5778 70.3079C47.5772 69.903 47.5214 69.4938 47.5645 69.0946C47.6299 68.4888 48.1291 68.2565 48.6443 68.6258C48.9946 68.8769 49.248 69.2638 49.5754 69.7167ZM52.8317 72.1486C52.4574 71.3311 52.0998 70.6465 51.7747 69.9467C51.6033 69.5777 51.5689 69.117 51.9426 68.9165C52.1656 68.7966 52.592 68.9195 52.8658 69.0564C53.7274 69.4876 54.1976 70.278 54.4484 71.159C54.7118 72.0844 54.974 72.9774 55.5821 73.7603C55.788 74.0253 55.7413 74.4872 55.8099 74.8591C55.3915 74.7762 54.8894 74.812 54.5715 74.5869C53.7671 74.0172 53.1891 73.226 52.8317 72.1486Z" fill="#FFFF00"/>
</g>
<defs>
<clipPath id="clip0_32_61">
<rect width="114" height="114" fill="white"/>
</clipPath>
</defs>
</svg>
