<svg width="50" height="50" viewBox="0 0 50 50" fill="none" xmlns="http://www.w3.org/2000/svg">
<path d="M29.4116 14.7737C29.4776 14.4717 29.5332 14.2644 29.6116 14.0661C29.7689 13.6683 29.799 13.2141 30.1753 12.912C30.3252 12.7916 30.4139 12.5952 30.5305 12.4334C30.6851 12.6657 30.9753 12.9028 30.9675 13.1296C30.9481 13.683 30.7899 14.2315 30.6896 14.7823C30.656 14.9668 30.5793 15.1601 30.6071 15.3361C30.7381 16.1668 30.3962 16.8821 30.051 17.5796C29.5494 18.5931 28.9862 19.576 28.4529 20.5741C28.367 20.7348 28.2532 20.901 28.2357 21.0732C28.2101 21.3249 28.2597 21.5844 28.2773 21.8404C28.4405 21.7082 28.6188 21.5907 28.7644 21.4413C29.5666 20.6183 30.7222 20.4094 31.6393 19.7779C32.5124 19.1767 33.5018 18.7587 34.2504 17.9597C35.0333 17.1242 35.515 16.1331 35.9398 15.0982C36.0091 14.9293 36.0588 14.751 36.1415 14.5893C36.2408 14.3954 36.3658 14.2145 36.4796 14.028C36.4692 14.2722 36.4859 14.5212 36.4435 14.7595C36.2414 15.8948 35.6222 16.8559 35.1223 17.8669C35.0836 17.9453 35.0848 18.0435 35.0675 18.1326C35.155 18.1051 35.2649 18.1022 35.3262 18.0461C35.5689 17.8237 35.7709 17.5496 36.0349 17.3595C36.5488 16.989 37.1607 17.0973 37.4502 17.5658C37.645 17.8815 37.415 18.4101 36.9402 18.7245C36.6566 18.9124 36.3665 19.0906 36.0823 19.2776C36.0283 19.3131 35.988 19.3691 35.9414 19.4157C36.0257 19.449 36.1257 19.5292 36.1917 19.5073C36.451 19.4212 36.7081 19.319 36.95 19.1922C37.2234 19.049 37.4292 19.0907 37.6304 19.3213C37.8808 19.608 37.6171 19.7517 37.459 19.8628C36.8505 20.2904 36.2398 20.7206 35.5954 21.0899C33.8399 22.0963 32.0722 23.0819 30.2983 24.0558C29.4148 24.5408 28.5083 24.9844 27.6097 25.4419C27.2723 25.6136 27.2208 25.7339 27.4024 26.1611C27.9495 27.4485 28.3657 28.7922 28.8085 30.1221C28.8775 30.3296 28.8666 30.5926 28.8098 30.8081C28.5378 31.8399 28.6422 32.9343 28.8611 34.1135C29.0487 35.1238 29.4345 36.101 29.4217 37.1518C29.4188 37.3871 29.6185 37.6332 29.5905 37.8577C29.5552 38.1411 29.403 38.4208 29.2443 38.6653C29.2225 38.6988 28.8545 38.5495 28.6794 38.435C28.022 38.0051 27.7914 37.3242 27.6273 36.6015C27.505 36.063 27.4688 35.4541 27.1825 35.0142C26.5939 34.11 26.4833 33.0593 26.1099 32.0942C25.9111 31.5804 25.9383 30.9814 25.8457 30.4238C25.8162 30.2461 25.7561 30.0612 25.6609 29.9105C25.5862 29.7919 25.4362 29.7207 25.3196 29.6285C25.3478 29.7641 25.3943 29.899 25.4008 30.0357C25.4258 30.5551 25.4641 31.0761 25.4449 31.5946C25.4336 31.8986 25.3575 32.2126 25.2444 32.4959C25.1738 32.6729 24.9717 32.9321 24.8434 32.924C24.5716 32.9066 24.3672 32.6489 24.4748 32.3663C24.8855 31.2875 24.5524 30.1757 24.6621 29.0861C24.6721 28.9883 24.685 28.8819 24.6567 28.792C24.634 28.7197 24.5557 28.6227 24.4934 28.6158C24.4233 28.6082 24.2909 28.6756 24.2754 28.734C23.8729 30.2563 22.9958 31.5751 22.0417 32.7294C20.9269 34.0784 20.3866 35.7002 19.4472 37.1154C19.1913 37.5009 18.9402 37.5819 18.6251 37.468C18.2518 37.333 18.2486 36.908 18.349 36.6213C18.6002 35.9053 18.9378 35.2198 19.2333 34.5188C19.3396 34.2666 19.526 33.9962 19.5034 33.7498C19.3472 32.05 19.9966 30.5719 20.7027 29.1011C20.7724 28.956 20.7863 28.7842 20.8261 28.6247C20.6902 28.681 20.5508 28.7301 20.419 28.7945C18.9934 29.4911 17.5891 30.2358 16.1374 30.8728C15.1351 31.3127 14.076 31.6334 13.0219 31.9369C12.8327 31.9913 12.5118 31.739 12.3104 31.5617C12.0731 31.3528 12.1722 31.1178 12.3717 30.892C12.6076 30.6253 12.7659 30.2951 13.1507 30.178C13.3812 30.1079 13.6179 30.002 13.8017 29.8513C13.9633 29.7189 14.0553 29.5018 14.1781 29.3221C13.997 29.3463 13.8164 29.3849 13.6348 29.3907C13.4423 29.3968 13.2135 29.4315 13.0654 29.344C12.9097 29.2522 12.6132 29.0932 12.8817 28.815C13.1981 28.4874 13.4928 27.943 13.8537 27.8918C14.8114 27.7559 15.5577 27.2028 16.4108 26.8748C18.2027 26.1861 20.0045 25.5234 21.8028 24.8516C21.8317 24.8408 21.8749 24.8624 21.9002 24.8486C23.3292 24.0698 23.5149 24.4132 23.484 22.643C23.4605 21.3008 23.482 19.9684 23.1029 18.6519C22.9467 18.1096 23.0167 17.4972 23.0172 16.9168C23.0178 16.3007 23.0943 15.6832 23.0719 15.0687C23.0417 14.2387 23.1104 13.3522 22.8361 12.5991C22.578 11.89 23.0956 11.7784 23.353 11.464C23.4914 11.2949 23.9768 11.6776 24.0681 12.0457C24.4681 13.6589 24.8752 15.2706 25.2519 16.8892C25.484 17.8862 25.8841 18.8499 25.8633 19.9024C25.8607 20.0274 26.0329 20.1559 26.1241 20.2829C26.1708 20.1859 26.2024 20.0774 26.2663 19.9935C26.9152 19.1412 27.6382 18.3356 28.2015 17.4306C28.6968 16.635 29.0151 15.7295 29.4116 14.7737ZM23.971 27.814L23.9855 27.6309C23.9477 27.6919 23.9099 27.753 23.7732 27.814L23.7588 27.9971C23.7965 27.936 23.8343 27.875 23.971 27.814ZM26.8397 27.1225C26.9057 27.1553 26.9716 27.1883 27.0375 27.32C26.9716 27.5551 26.8989 27.7887 26.8475 28.0268C26.8404 28.0594 26.9387 28.1148 26.9883 28.1596C26.7679 27.8344 27.543 27.5614 27.0375 27.1225C26.9716 27.0895 26.9057 27.0566 26.8397 26.9249L26.6563 26.9104C26.7175 26.9481 26.7786 26.986 26.8397 27.1225ZM28.917 23.6648C28.8235 23.6648 28.702 23.6282 28.6429 23.6732C28.5506 23.7436 28.5007 23.8693 28.4328 23.9715C28.5209 23.9424 28.6157 23.9253 28.6958 23.8814C28.8082 23.8196 28.9097 23.7379 29.1149 23.6648L29.3836 23.3404C29.3322 23.3169 29.2393 23.2674 29.2355 23.2735C29.1562 23.4001 29.087 23.5331 28.917 23.6648ZM22.3884 26.0358L22.0915 26.2642L22.3741 26.6143C22.4119 26.4837 22.4546 26.3543 22.485 26.222C22.4986 26.1628 22.4872 26.098 22.5862 26.0358L22.6007 25.8526C22.5629 25.9137 22.5251 25.9747 22.3884 26.0358ZM30.8954 22.4793C30.833 22.4793 30.7475 22.4533 30.7127 22.4842C30.607 22.5783 30.5208 22.6944 30.427 22.8019C30.5979 22.8113 30.7724 22.8421 30.9369 22.814C30.974 22.8077 30.9761 22.5963 31.0932 22.4793L31.1077 22.2962C31.0699 22.3572 31.0321 22.4183 30.8954 22.4793ZM31.4889 21.2938C30.8987 21.1193 30.7896 21.8946 30.2896 21.9047C30.2766 21.905 30.2458 22.0236 30.2565 22.0298C30.3068 22.0589 30.3711 22.0878 30.4261 22.0811C30.9464 22.0171 31.3422 21.7646 31.6868 21.2938L32.1616 21.0172C32.1256 20.9777 32.0706 20.8982 32.0567 20.9049C31.9195 20.9705 31.7839 21.0428 31.6598 21.1303C31.618 21.1597 31.6108 21.2379 31.4889 21.2938ZM18.4316 28.8019C19.0256 28.7425 19.5823 28.5785 20.0383 28.1759C20.1312 28.094 20.1687 27.9493 20.2317 27.8336C20.1033 27.8271 19.9581 27.7778 19.849 27.8205C18.6078 28.3064 17.318 28.6844 16.1782 29.4001C15.9118 29.5673 15.6816 29.7954 15.4496 30.0114C15.3918 30.0652 15.3917 30.1808 15.365 30.2681C15.4541 30.2502 15.5516 30.25 15.6309 30.212C16.533 29.7782 17.4325 29.3387 18.4316 28.8019ZM21.597 29.9874C21.9162 29.4051 22.2419 28.8264 22.5487 28.2377C22.6077 28.1246 22.592 27.9727 22.6107 27.8386C22.4766 27.8904 22.2744 27.9035 22.219 28.0003C21.8298 28.6801 21.4573 29.3708 21.116 30.0756C21.0599 30.1916 21.1836 30.3945 21.2242 30.5573C21.3155 30.4002 21.4068 30.2432 21.597 29.9874ZM27.1365 20.5035C27.1694 20.3882 27.2262 20.2728 27.2255 20.1578C27.2252 20.0984 27.1227 20.0397 27.0664 19.9807C26.793 20.4478 26.511 20.9102 26.2569 21.3875C26.2245 21.4483 26.3379 21.5866 26.3838 21.689C26.4698 21.6267 26.5922 21.5831 26.6353 21.4988C26.7842 21.2076 26.9057 20.9022 27.1365 20.5035ZM31.5878 22.183C32.2174 22.2401 32.5593 21.6825 33.0708 21.4861C33.1031 21.4737 33.1112 21.3986 33.1305 21.3526C33.0411 21.3331 32.9293 21.2691 32.8658 21.3009C32.4341 21.5178 32.0126 21.7549 31.5878 22.183ZM27.6311 29.4934C27.6311 29.1346 27.6445 28.775 27.6201 28.4179C27.615 28.3433 27.47 28.2785 27.3895 28.2092C27.3381 28.275 27.2444 28.3395 27.2423 28.4069C27.229 28.8306 27.2322 29.2546 27.2519 29.678C27.2524 29.6881 27.4991 29.6869 27.6311 29.4934ZM28.4224 36.0136C28.3352 35.7289 28.2552 35.4416 28.1505 35.1634C28.1391 35.133 27.9814 35.1393 27.9005 35.1613C27.8651 35.171 27.8199 35.2736 27.834 35.3157C27.9561 35.6815 28.0908 36.0431 28.2217 36.4058C28.2885 36.3409 28.3555 36.276 28.4224 36.0136ZM33.764 20.0095C33.2729 19.7463 33.0053 20.0424 32.7724 20.4106C32.7205 20.4928 32.6954 20.5919 32.658 20.6831C32.7458 20.6732 32.8526 20.6918 32.9183 20.6483C33.1743 20.479 33.4173 20.29 33.764 20.0095ZM27.5322 31.9632L27.3933 31.627C27.3407 31.6971 27.2341 31.777 27.2448 31.8357C27.2881 32.0749 27.362 32.3094 27.4366 32.5418C27.458 32.6087 27.5197 32.6627 27.563 32.7227C27.5857 32.6337 27.6204 32.5457 27.6281 32.4553C27.6394 32.3251 27.6311 32.1932 27.5322 31.9632ZM27.8289 33.2475C27.8289 33.4104 27.8135 33.575 27.8324 33.7357C27.8624 33.9923 27.9151 34.2463 27.9583 34.5013C27.9811 34.2501 28.0703 33.9809 28.0082 33.7528C27.9449 33.5203 28.2996 33.1681 27.8289 33.2475ZM30.203 15.6628C30.0267 15.5271 29.8477 15.4598 29.8176 15.7669C29.8054 15.891 29.9076 16.0264 29.9577 16.1567C30.0395 16.058 30.1212 15.9592 30.203 15.6628ZM24.8613 28.308C24.9273 28.3793 25.0484 28.4494 25.05 28.5222C25.0582 28.9072 25.2502 28.8104 25.326 28.6016C25.3674 28.4875 25.1728 28.2785 25.0643 28.1267C25.0388 28.0911 24.9311 28.1142 24.8613 28.308ZM29.2137 22.7757C29.4646 22.9625 29.6072 22.9413 29.6158 22.5876C29.618 22.4962 29.6983 22.4065 29.7427 22.316C29.6337 22.3361 29.5155 22.337 29.4184 22.3825C29.3374 22.4205 29.2811 22.511 29.2137 22.7757ZM36.237 17.9349C36.215 17.9569 36.1882 17.9759 36.1729 18.0018C36.1633 18.0181 36.1701 18.0638 36.1711 18.0639C36.3414 18.0722 36.5125 18.0866 36.6811 18.0718C36.7022 18.0699 36.7096 17.9129 36.7233 17.8279C36.5942 17.8306 36.465 17.8334 36.237 17.9349ZM23.5753 26.2333C23.5534 26.2552 23.5266 26.2743 23.5113 26.3002C23.5017 26.3165 23.5084 26.3622 23.5094 26.3623C23.6797 26.3706 23.8509 26.385 24.0195 26.3701C24.0406 26.3684 24.0479 26.2113 24.0617 26.1262C23.9326 26.129 23.8034 26.1317 23.5753 26.2333ZM35.05 18.9228C34.9612 18.9457 34.8522 18.9443 34.7888 18.9973C34.7082 19.0647 34.6645 19.1761 34.6048 19.2686C34.7167 19.2556 34.8383 19.2652 34.9376 19.2228C35.0214 19.1871 35.0795 19.091 35.05 18.9228ZM25.1581 19.7132C25.1252 19.9198 25.0857 20.1257 25.064 20.3335C25.059 20.3816 25.1144 20.436 25.142 20.4875C25.1804 20.4197 25.2441 20.3545 25.2518 20.2833C25.2686 20.1279 25.257 19.9693 25.1581 19.7132ZM33.764 20.7999C33.8959 20.799 34.0281 20.8003 34.159 20.7889C34.1646 20.7885 34.1646 20.6138 34.159 20.6132C34.0281 20.6019 33.8959 20.6033 33.764 20.7999ZM19.8164 26.4309C19.9153 26.3514 20.018 26.2757 20.1077 26.1869C20.1172 26.1774 20.0504 26.0912 20.0191 26.0405C19.8856 26.1707 19.7521 26.3008 19.8164 26.4309ZM20.7067 33.0499L21.098 32.8479C20.9676 32.8494 20.8371 32.8508 20.7067 33.0499ZM21.1024 27.5176L21.4937 27.3157C21.3633 27.3171 21.2328 27.3186 21.1024 27.5176ZM21.9927 30.5802L22.2635 30.2579C22.2128 30.2336 22.1279 30.1779 22.1167 30.19C22.0341 30.2795 21.9663 30.3826 21.9927 30.5802ZM14.8705 28.9994L15.1221 28.9459L14.8252 28.6494C14.8074 28.7332 14.7895 28.8169 14.8705 28.9994ZM23.6743 28.5055L23.622 28.2557C23.5793 28.2673 23.4987 28.2862 23.4994 28.2895C23.5199 28.3953 23.5482 28.4997 23.6743 28.5055ZM16.2554 27.814L16.1564 27.6164C16.1235 27.6823 16.0905 27.7481 16.2554 27.814ZM24.3667 16.7494C24.3939 16.6448 24.4223 16.5405 24.4428 16.4346C24.4434 16.4315 24.3628 16.4125 24.3201 16.4009C24.3027 16.4842 24.2853 16.5674 24.3667 16.7494ZM35.5446 19.812L35.4259 19.733C35.4325 19.7922 35.4391 19.8515 35.5446 19.812ZM25.356 21.0963L25.4351 20.9777C25.3757 20.9843 25.3164 20.9909 25.356 21.0963ZM25.5537 22.6769L25.6329 22.5583C25.5736 22.565 25.5142 22.5715 25.5537 22.6769ZM20.41 27.4188L20.4891 27.3003C20.4297 27.3068 20.3704 27.3135 20.41 27.4188ZM24.07 27.32L24.1886 27.3991C24.1821 27.3398 24.1755 27.2805 24.07 27.32ZM21.4981 31.8644L21.6167 31.9434C21.6102 31.8842 21.6036 31.8249 21.4981 31.8644ZM28.1256 30.3826L28.2048 30.264C28.1455 30.2706 28.0861 30.2772 28.1256 30.3826Z" fill="#FFFF00"/>
</svg>
