<svg width="49" height="54" viewBox="0 0 49 54" fill="none" xmlns="http://www.w3.org/2000/svg">
<path d="M32.55 31.9945C33.083 31.9608 33.5068 31.9903 33.9305 32.0198C33.9482 31.4357 33.4044 31.3617 33.0742 31.1287C30.5599 29.3554 27.9585 27.6974 25.5193 25.8275C22.5867 23.5795 19.427 21.6138 16.8003 18.9785C16.5032 18.6803 16.2433 18.3075 16.0899 17.9202C16.0183 17.7394 17.21 17.312 17.5996 17.3467C18.5805 17.4343 19.5576 17.8555 20.5488 17.4023C21.2878 17.8408 22.0436 17.3097 22.7945 17.4302C22.9447 17.4541 23.1323 17.2453 23.3026 17.1439C23.1834 17.0123 23.0828 16.855 22.942 16.7532C20.3561 14.8824 17.7631 13.0213 15.1765 11.1515C14.0412 10.3308 12.954 9.43689 11.7769 8.68259C10.4888 7.85727 9.09783 7.19405 7.79566 6.38925C6.07056 5.32334 4.22592 4.44603 2.69468 3.06641C2.09333 2.52453 1.36464 2.09787 0.637453 1.73083C0.128539 1.4739 0.356254 1.15345 0.494381 0.930527C0.584569 0.78446 0.848539 0.477043 1.19506 0.877643C1.54112 1.27794 2.08494 1.49937 2.50592 1.84379C4.4839 3.46176 6.71236 4.68708 8.91176 5.95734C10.5443 6.90012 12.2019 7.80004 13.8193 8.76753C14.5173 9.18521 15.1372 9.73217 15.8009 10.2089C17.3185 11.2989 18.853 12.3659 20.3591 13.4715C22.2724 14.876 24.1606 16.3142 26.07 17.7238C26.2927 17.8881 26.6757 17.9645 26.1351 18.1842C25.77 18.3325 25.3894 18.5112 25.0066 18.5356C23.5643 18.6276 22.1185 18.6628 20.6739 18.717C20.439 18.7257 20.2036 18.7314 19.9687 18.725C19.5865 18.7143 19.2045 18.6928 18.8225 18.6758C19.0289 19.0773 19.1447 19.5804 19.4593 19.8604C20.2707 20.583 21.1789 21.1957 22.0327 21.872C24.7498 24.0242 27.4782 26.1534 30.4093 28.0225C32.1781 29.1505 33.9347 30.3209 35.4211 31.8486C35.7296 32.1654 36.3014 32.2173 36.5013 32.7458C36.5699 32.9277 36.7916 33.0517 36.9434 33.2021C36.6574 33.3313 36.3629 33.5839 36.087 33.565C35.3988 33.5175 34.7228 33.3181 34.0355 33.2305C31.924 32.9617 29.8135 32.6775 27.6953 32.4743C25.8872 32.3009 24.0638 32.2842 22.3019 31.756C22.0046 31.6669 21.6674 31.7208 21.3546 31.6712C21.0312 31.6198 20.7148 31.523 20.3954 31.446C20.5459 31.7794 20.6839 32.1193 20.8524 32.4433C20.9446 32.6206 21.0578 32.8131 21.2139 32.9265C22.7267 34.0231 24.2439 35.114 25.773 36.1881C28.0677 37.7997 30.3991 39.3602 32.6662 41.0095C34.9624 42.68 37.2225 44.4026 39.455 46.1575C41.2295 47.5527 42.9125 49.0646 44.6909 50.4544C45.3338 50.9569 46.1462 51.2375 46.8617 51.6529C47.3324 51.926 47.8096 52.2155 48.2021 52.5845C48.3933 52.7641 48.5601 53.2717 48.4541 53.4053C48.2045 53.7194 47.7936 53.8829 47.353 53.5987C46.7613 53.2171 46.1422 52.8778 45.5545 52.4905C43.9769 51.4507 42.2824 50.8005 40.3765 50.6225C39.2334 50.5159 38.1221 50.104 36.9805 49.9382C35.3969 49.7081 33.7985 49.5783 32.2058 49.4105C31.9705 49.3858 31.7173 49.4373 31.4983 49.3696C30.5216 49.0675 29.554 48.7355 28.5841 48.4117C28.4793 48.3767 28.3805 48.3239 28.2788 48.2794C28.3622 48.1963 28.4345 48.0965 28.5308 48.0327C29.0951 47.6592 29.7411 47.6721 30.2722 47.9639C31.3068 48.5323 32.4524 48.5012 33.5354 48.5822C34.8288 48.679 36.0909 48.8856 37.3616 49.0958C38.9943 49.3659 40.6319 49.6069 42.2677 49.8582C42.3336 49.8684 42.403 49.8562 42.4707 49.8544C42.4373 49.7421 42.4404 49.5819 42.3652 49.5244C40.7266 48.2726 39.0745 47.0387 37.4351 45.7881C35.2078 44.089 33.0091 42.3521 30.7594 40.6838C29.446 39.7097 28.0401 38.8607 26.7061 37.9132C25.247 36.8767 23.8246 35.789 22.3813 34.7305C22.1925 34.5921 21.9813 34.4781 21.7678 34.3806C20.3257 33.7217 19.2093 32.6021 17.9518 31.6833C17.7642 31.5463 17.6066 31.3491 17.4802 31.1511C17.0709 30.5105 17.1464 30.6051 17.8259 30.1467C18.2539 29.858 18.3982 29.5452 18.7089 30.2027C18.7793 30.3514 19.1649 30.381 19.4121 30.4116C22.024 30.7346 24.5625 31.5352 27.2169 31.5894C28.2852 31.6113 29.4024 31.5323 30.4024 31.8242C31.1053 32.0293 31.7672 31.9579 32.55 31.9945Z" fill="#FFFF00"/>
</svg>
