<svg width="48" height="49" viewBox="0 0 48 49" fill="none" xmlns="http://www.w3.org/2000/svg">
<path d="M25.7876 13.1369L26.0922 15.3769L27.3434 13.4903L34.6809 2.42662L30.5647 15.0342L29.8623 17.1837L31.8125 16.0244L43.2463 9.22521L34.041 18.8061L32.4716 20.4405L34.7337 20.2369L48 19.0487L35.5292 23.7063L33.4029 24.5003L35.5292 25.2943L48 29.9518L34.7337 28.7631L32.4716 28.5607L34.041 30.1944L43.2463 39.7754L31.8125 32.9762L29.8623 31.8169L30.5647 33.9664L34.6809 46.574L27.3434 35.5103L26.0922 33.6237L25.7876 35.8637L24 49L22.2124 35.8637L21.9078 33.6237L20.6566 35.5103L13.3191 46.5734L17.4353 33.9664L18.1376 31.8169L16.1875 32.9762L4.75375 39.7754L13.9589 30.1944L15.5284 28.5607L13.2663 28.7631L0 29.9518L12.4708 25.2943L14.5971 24.5003L12.4708 23.7063L0 19.0487L13.2663 20.2374L15.5278 20.4399L13.9589 18.8061L4.75375 9.22521L16.1869 16.0244L18.1371 17.1837L17.4348 15.0342L13.3186 2.42718L20.6566 13.4897L21.9078 15.3763L22.2124 13.1369L24 0L25.7876 13.1369Z" fill="#074942"/>
</svg>
