<svg width="25" height="225" viewBox="0 0 25 225" fill="none" xmlns="http://www.w3.org/2000/svg">
<path d="M14.0423 212.292C14.5077 212.642 14.8073 212.976 15.1307 213.202C16.6743 214.281 17.3627 216.64 16.575 218.388C16.4213 218.729 15.9336 219.044 15.6971 218.886C14.6494 218.189 14.0935 219.107 13.4007 219.642C11.4681 221.134 9.53942 222.636 7.57884 224.06C6.18614 225.072 5.49682 224.449 5.11964 221.94C5.02897 221.335 4.93749 220.706 4.94962 220.119C4.99667 217.835 4.95645 215.502 5.18584 213.3C5.64588 208.879 5.49281 204.361 4.96302 199.733C4.9031 199.21 5.00137 198.672 5.07849 198.172C5.29717 196.755 6.21586 196.571 6.97162 197.801C7.23653 198.233 7.49066 198.723 7.65388 199.233C8.17378 200.855 8.74764 200.209 9.1458 199.607C9.74841 198.697 10.3041 197.678 10.727 196.555C12.018 193.128 13.604 190.081 15.4707 187.366C15.8238 186.852 16.1462 186.281 16.4211 185.668C16.5288 185.427 16.5761 184.882 16.4647 184.674C15.6536 183.169 14.799 181.709 13.95 180.245C12.9043 178.442 11.8723 176.62 10.7954 174.856C8.94841 171.832 7.13011 168.77 5.31624 165.714C4.03578 163.555 2.42962 161.762 1.34804 159.266C0.938791 158.321 0.789121 157.651 1.13048 156.679C1.53692 155.523 1.77373 155.202 2.82464 156.037C6.48448 158.944 10.2799 160.5 14.108 160.145C15.0894 160.054 16.0027 159.446 16.9007 158.944C18.0064 158.324 19.0994 157.649 20.1284 156.839C20.7988 156.311 20.7093 155.883 19.9797 154.669C16.4805 148.849 12.494 143.974 8.29869 139.433C7.58937 138.665 6.85855 137.945 6.16481 137.144C5.1785 136.006 4.87895 134.576 5.2779 133.282C5.46144 132.684 5.58254 132.322 6.23478 132.567C10.9933 134.355 14.2992 131.068 17.6531 127.924C18.3194 127.299 17.9517 126.677 17.5745 126.163C16.8726 125.207 16.0918 124.381 15.34 123.508C12.0412 119.681 8.81382 115.704 5.10414 112.841C4.41301 112.307 3.88329 110.845 3.47221 109.699C3.3461 109.347 3.75926 108.325 4.10748 108.131C4.80615 107.741 5.61882 107.643 6.40503 107.543C9.41582 107.162 11.9262 105.408 14.2288 103.045C14.6859 102.576 14.6838 102.199 14.1271 101.662C10.9318 98.5823 7.91882 94.9854 4.38521 92.8668C3.71003 92.4618 2.65541 92.0908 2.37188 90.4919C2.04898 88.6715 2.39703 87.5236 3.62859 87.1755C4.64163 86.8892 5.70551 86.7126 6.77334 86.7776C9.67644 86.9537 12.1807 85.8125 14.507 83.9131C15.2719 83.2888 15.1997 82.9639 14.3651 82.2727C10.9336 79.4314 7.77337 75.8727 4.55942 72.4571C3.33325 71.1537 2.84083 69.8919 3.19413 68.4164C3.3204 67.8883 3.81695 67.2005 4.11646 67.3029C6.17964 68.011 7.74995 66.466 9.52267 65.999C11.2801 65.5362 12.7544 63.8394 14.3405 62.6538C15.2069 62.0061 15.0475 61.7468 14.0739 60.8739C10.587 57.7472 7.18457 54.3607 3.74915 51.0749C3.44194 50.7811 3.13911 50.4568 2.81586 50.2298C1.81996 49.5297 1.49905 48.4982 1.63377 47.0631C1.75993 45.7225 2.26808 45.288 3.17073 45.3233C5.91816 45.4302 8.15213 43.7358 10.4684 42.3335C11.1221 41.9379 11.8417 41.7179 12.485 41.2978C13.0036 40.9586 13.4595 40.7414 12.4818 39.6326C9.04203 35.7326 5.69406 31.632 2.31574 27.5987C0.535414 25.473 0.191826 24.0894 1.05946 22.3372C1.26011 21.932 1.64492 21.6272 2.00302 21.5495C3.29207 21.2684 4.62566 21.1935 5.90549 20.8763C8.13682 20.3237 9.74043 18.224 11.5462 16.6357C11.6408 16.5526 11.5416 15.6942 11.3742 15.4733C8.88701 12.1963 6.34188 9.01894 3.88549 5.6911C3.20327 4.76671 2.68644 3.47513 2.25693 2.2592C2.08969 1.78618 2.22876 0.7377 2.48665 0.524871C2.81731 0.252638 3.52604 0.297122 3.86351 0.671846C4.57035 1.45681 5.16015 2.52255 5.7626 3.51717C6.6812 5.03425 7.45723 6.80498 8.49399 8.0825C10.6378 10.7235 12.4725 14.0614 15.1086 15.6651C15.8942 16.1429 15.8463 17.3571 16.0254 18.1688C16.1365 18.6716 15.6061 19.8097 15.2213 19.862C13.6717 20.0726 12.7536 21.7052 11.4747 22.4769C9.80321 23.4854 8.12038 24.5346 6.32575 25.1092C5.2639 25.4491 5.40694 26.1006 5.76878 27.2226C6.55337 29.6545 8.09207 31.0677 9.40992 32.6835C11.6142 35.385 13.9474 37.8377 16.2392 40.3666C17.6775 41.9532 17.8284 44.1198 16.4866 45.0818C15.7418 45.6153 14.9438 46.2475 14.0976 46.2616C11.9784 46.2967 10.1674 47.4975 8.16285 47.9419C7.06428 48.1853 6.89076 49.1278 7.62408 50.6333C7.95731 51.3173 8.48464 51.8291 8.93656 52.3948C11.4412 55.5293 14.191 57.9501 17.0506 60.1124C18.893 61.5054 19.1194 63.9527 17.6873 65.4097C15.3763 67.7618 12.8152 69.4069 9.91585 70.1775C9.46036 70.2986 9.00527 70.6396 8.68843 71.0899C8.19332 71.7927 7.99083 72.2825 8.9417 73.5078C10.5623 75.5961 12.1585 77.4455 14.1413 78.3625C14.3351 78.452 14.5893 78.6415 14.687 78.8774C15.4598 80.7418 16.6459 81.3245 17.8697 81.7533C18.8962 82.113 19.2155 83.0592 19.5572 84.4839C19.9555 86.1444 19.2258 86.3228 18.7028 86.6209C15.7707 88.2944 12.9343 90.3049 9.58115 90.5955C8.59451 90.6811 8.34159 91.5116 9.04067 92.7476C9.59821 93.7325 10.3187 94.6117 11.0501 95.3002C13.2722 97.3915 15.5284 99.3879 17.7846 101.379C18.706 102.192 19.1965 105.111 18.4004 105.789C17.3309 106.697 16.1939 107.452 15.0017 108.046C13.3591 108.865 11.6354 109.434 9.96649 110.176C8.81597 110.688 8.75312 112.764 9.96185 114.032C12.707 116.912 15.2248 120.31 18.2047 122.687C19.526 123.74 20.8558 125.357 21.2907 127.746C21.4033 128.364 21.3629 129.285 21.112 129.624C20.115 130.971 19.1612 132.588 17.9049 133.277C15.811 134.427 13.9199 136.348 11.4145 136.197C11.2343 136.186 11.0751 136.405 10.9062 136.518C11.0525 136.853 11.1698 137.228 11.3519 137.516C11.6556 137.995 12.0949 138.351 12.3138 138.878C14.0115 142.967 16.6475 145.708 18.9208 148.966C20.4727 151.19 21.8385 153.683 23.6027 155.621C24.1106 156.179 24.2689 157.615 24.4998 158.668C24.5698 158.988 24.4204 159.615 24.2444 159.697C21.4073 161.022 18.868 163.337 15.7121 163.595C13.988 163.736 12.2413 163.877 10.4847 163.606C9.32879 163.428 8.02734 163.063 7.07815 161.341C6.9633 161.133 6.65432 161.14 6.43529 161.047C6.48081 161.33 6.47162 161.662 6.58007 161.888C8.38665 165.634 9.88455 169.872 12.3547 172.701C13.886 174.454 14.9055 177.07 16.7249 178.276C17.1348 178.549 17.4718 179.433 17.7427 180.105C18.3594 181.634 19.0057 183.168 19.4719 184.769C20.165 187.148 19.134 188.744 18.2403 189.654C16.1551 191.777 14.7172 194.71 13.2817 197.645C12.3442 199.562 11.7328 201.871 11.0365 204.059C10.9235 204.413 11.0349 205.11 11.2024 205.544C12.0686 207.79 12.9869 210.002 14.0423 212.292ZM7.13709 212.56L7.58027 213.206L7.68497 211.879C7.51399 211.958 7.34303 212.038 7.13709 212.56Z" fill="#FFFF00"/>
</svg>
