<svg width="139" height="142" viewBox="0 0 139 142" fill="none" xmlns="http://www.w3.org/2000/svg">
<path d="M34.663 70.4298C30.5496 70.9088 26.7357 69.9737 22.9774 69.8616C18.2032 69.7196 14.7189 67.3184 11.014 65.3332C7.33433 63.3618 6.22181 59.2306 4.91697 55.4593C2.90978 49.6572 2.38832 43.82 2.87164 37.6313C3.67231 27.3716 9.00489 20.2453 16.5885 13.9984C20.1609 11.0557 23.6408 10.5209 27.9497 11.3392C29.918 11.7132 32.2182 11.1556 34.1927 10.4965C37.0847 9.53063 39.6555 10.126 42.3367 11.0997C46.1655 12.4903 50.0701 13.6752 53.8891 15.0913C55.2859 15.6096 56.7952 16.2837 57.7969 17.325C61.567 21.2434 65.2861 25.2291 68.7503 29.4157C70.8825 31.992 71.0508 35.5042 70.5255 38.5106C69.8833 42.1868 68.2693 45.7328 66.7769 49.2073C65.8473 51.3706 64.347 53.2865 63.1349 55.3327C59.5005 61.4687 53.7046 64.7535 47.2858 67.06C43.2778 68.5009 39.2653 70.0964 34.663 70.4298ZM40.9792 13.2717C39.703 13.127 38.4281 12.9681 37.1504 12.8399C33 12.423 29.7068 14.5545 26.2992 16.4237C24.5917 17.3604 22.7619 18.0801 20.9655 18.8465C20.621 18.9936 20.1738 18.9004 19.7739 18.9181C19.8738 18.528 19.8537 18.0254 20.0956 17.7686C20.9588 16.8511 21.9702 16.0693 22.7996 15.1259C23.128 14.7523 23.1268 14.0897 23.2755 13.5588C22.7819 13.628 22.17 13.5344 21.8133 13.7928C19.3016 15.6124 16.7253 17.3706 14.3906 19.4014C9.82916 23.3686 6.82034 28.4892 5.68815 34.3158C4.55793 40.1328 5.00821 46.073 6.7177 51.8551C8.18062 56.8046 10.3294 61.2241 15.2235 63.6398C16.7344 64.3855 18.5434 64.6021 19.9387 65.4937C25.077 68.7785 30.6298 68.4148 36.2062 67.5052C39.0455 67.0419 41.9017 66.3321 44.5775 65.2903C51.159 62.7271 57.5062 59.71 61.6217 53.5335C62.5915 52.078 63.5306 50.6018 64.4815 49.1337C66.7675 45.6062 67.4926 41.5128 68.2972 37.5334C68.6067 36.0032 68.6181 34.0059 67.2999 32.4077C65.8064 30.5967 64.7752 28.3886 63.2014 26.6645C60.668 23.8897 58.1146 21.0094 55.094 18.8328C51.1712 16.0056 46.484 14.5832 40.9792 13.2717ZM-11.102 2.68046C-7.26617 7.46799 -2.72246 10.6896 2.52636 13.1136C3.8017 13.7027 4.71917 15.1593 5.64686 16.3379C5.87495 16.6274 5.65355 17.5205 5.34681 17.9007C5.09079 18.2181 4.73529 18.5241 3.8768 17.9448C0.25214 15.4975 -3.76027 13.6185 -7.35151 11.1296C-9.27218 9.79844 -10.4174 7.38383 -12.2806 5.92799C-15.6076 3.32816 -18.3537 -0.173809 -22.7252 -1.28476C-22.9363 -1.33864 -23.0913 -1.61392 -23.2722 -1.78617C-23.0689 -1.92853 -22.8829 -2.11021 -22.6595 -2.20695C-21.2413 -2.82388 -19.8152 -3.42261 -18.3816 -4.00297C-18.2467 -4.05724 -17.9734 -3.95066 -17.8531 -3.83072C-15.7252 -1.70319 -13.6106 0.437706 -11.102 2.68046ZM-29.0432 41.4384C-24.0257 41.5171 -19.3982 41.4302 -14.7723 41.4821C-10.2081 41.5332 -5.75881 41.1557 -1.53993 39.1843C-0.998415 38.931 -0.125385 39.3856 0.594276 39.5127C0.169556 40.4518 -0.0133057 41.9241 -0.718811 42.2434C-5.46268 44.3895 -10.6242 44.7654 -15.7216 44.9365C-20.6114 45.1009 -25.5413 44.3867 -30.4102 44.7111C-32.1606 44.8279 -32.607 44.3006 -32.815 43.2057C-33.0525 41.9556 -32.1641 41.429 -30.91 41.5092C-30.424 41.5403 -29.9269 41.3972 -29.0432 41.4384ZM92.2742 70.5635C87.3459 69.3401 83.7511 66.3691 79.7159 64.2655C77.1482 62.9305 74.6074 61.5444 72.0949 60.108C71.4634 59.7462 70.8047 59.1807 70.5085 58.546C70.0634 57.5907 71.1008 56.4719 72.117 56.8235C74.3121 57.5833 76.5891 58.2675 78.5849 59.4135C83.8947 62.4624 89.0605 65.7595 94.3105 68.9134C95.928 69.8848 97.6945 70.617 99.2652 71.6517C99.9034 72.0721 100.202 73.0065 100.655 73.7073C99.8452 73.7489 98.8994 74.0813 98.2521 73.778C96.3267 72.8755 94.5189 71.7233 92.2742 70.5635ZM13.7039 69.6359C14.3961 70.1821 15.0198 70.6859 14.9486 71.0559C14.0433 75.7644 11.0557 79.2172 7.89512 82.5831C4.21304 86.5051 0.624561 90.5147 -3.02488 94.4682C-4.21476 95.7609 -5.4478 97.0132 -6.7219 98.223C-6.90988 98.4007 -7.57763 98.3524 -7.77898 98.1569C-7.98151 97.9599 -8.05072 97.3114 -7.88044 97.101C-7.17336 96.2268 -6.16937 95.5528 -5.60701 94.6078C-2.71421 89.7447 1.27226 85.7418 4.72153 81.3196C6.86872 78.5671 9.25147 75.998 11.388 73.2381C12.2269 72.1547 12.6827 70.7755 13.7039 69.6359ZM91.5365 0.627258C88.983 2.10001 86.6357 3.36276 84.3819 4.77456C80.7026 7.07984 77.9879 10.4524 74.9492 13.4679C74.2948 14.1168 73.4277 14.582 72.592 14.9989C72.3557 15.1165 71.6101 14.8093 71.577 14.6159C71.5074 14.2033 71.6163 13.6201 71.8865 13.3118C75.976 8.64777 80.0415 3.91018 85.5479 0.843157C87.7604 -0.388924 90.2773 -1.0783 92.6608 -2.00089C94.9208 -2.87589 97.1793 -3.75639 99.4571 -4.58263C100.016 -4.78555 100.649 -4.7883 101.248 -4.88269C100.932 -4.29948 100.762 -3.51179 100.276 -3.16651C97.7197 -1.34769 94.8752 -0.128977 91.5365 0.627258ZM44.3533 92.9191C44.7706 96.5025 45.342 99.6883 45.7553 102.895C45.8088 103.31 45.1162 103.946 44.6251 104.237C44.4622 104.333 43.5731 103.732 43.4834 103.342C42.8991 100.794 42.129 98.2305 42.0091 95.6444C41.7472 89.9956 41.4589 84.3972 39.3609 79.0446C39.1092 78.4024 39.2067 77.4432 39.5151 76.8132C39.8191 76.1923 40.5969 75.8029 41.1667 75.3121C41.4833 75.8859 41.8384 76.442 42.1106 77.0358C44.1936 81.5862 43.6946 86.6183 44.7481 91.3634C44.826 91.7134 44.5629 92.1385 44.3533 92.9191ZM38.2303 -21.8105C38.9625 -24.5413 39.5619 -26.889 40.2442 -29.2124C40.361 -29.6104 40.8309 -29.9045 41.1376 -30.2471C41.35 -29.7555 41.8428 -29.1853 41.7299 -28.7853C40.8116 -25.526 40.3704 -22.3029 40.7121 -18.8548C41.1306 -14.6351 40.9332 -10.3557 41.0295 -6.10258C41.131 -1.6096 39.0121 1.98243 36.3403 5.31726C36.0595 5.66726 35.1825 5.54063 34.5824 5.63541C34.7783 5.11316 34.8892 4.53703 35.1829 4.07771C37.9043 -0.169876 39.2252 -4.60701 38.4698 -9.80471C37.9522 -13.3653 38.4804 -17.0765 38.5115 -20.7208C38.5134 -20.9528 38.2602 -21.1868 38.2303 -21.8105ZM0.306808 60.1859C-0.673584 63.4983 -3.45904 64.9655 -5.06707 67.3463C-5.31797 67.7179 -6.72741 67.46 -7.52139 67.2244C-7.77033 67.1505 -8.03539 66.0324 -7.82185 65.6702C-5.84101 62.3106 -3.01898 59.7883 0.34613 57.8507C0.36776 58.4988 0.389786 59.1469 0.306808 60.1859ZM18.1662 2.9758C18.1702 3.96484 18.2787 4.5626 18.3873 5.16074C17.8898 5.15681 17.3365 5.28777 16.9114 5.1108C16.487 4.93423 16.0238 4.51147 15.8665 4.08911C14.7701 1.14439 13.6965 -1.81213 12.7585 -4.80915C12.6154 -5.26612 13.21 -5.95353 13.4637 -6.53437C13.9434 -6.19971 14.5494 -5.95982 14.8825 -5.51544C16.6872 -3.10752 17.5618 -0.291393 18.1662 2.9758ZM29.1924 86.1385C28.538 86.3415 27.8573 86.5774 27.7665 86.4355C25.9134 83.5462 26.6567 80.1469 26.0373 77.0043C25.9925 76.7766 26.7389 76.2469 27.1888 76.1285C27.4224 76.0672 28.0091 76.5462 28.0992 76.8734C28.6222 78.7799 29.1381 80.6982 29.4657 82.6444C29.6482 83.7294 29.461 84.8762 29.1924 86.1385ZM58.0462 73.1288C60.3011 71.3363 61.6394 73.2578 62.851 74.2566C63.8106 75.0479 64.0729 76.744 64.5043 78.0834C64.66 78.5675 64.4075 79.183 64.3411 79.7387C63.7362 79.5479 62.9249 79.5409 62.5628 79.1346C60.9524 77.3252 59.4702 75.4018 58.0462 73.1288ZM54.381 7.85377C55.5812 4.86697 58.2165 2.81378 58.5385 -0.483696C58.5602 -0.70628 59.0883 -1.06297 59.3404 -1.03151C59.6326 -0.994934 60.0546 -0.638639 60.1202 -0.352346C60.7601 2.44726 58.7733 6.8895 56.1188 8.44209C55.7724 8.64462 55.0645 8.23012 54.381 7.85377ZM86.9404 37.3029C85.949 40.0817 83.5746 39.1516 81.924 39.7462C80.9739 40.0888 79.6561 39.4769 78.5342 39.18C78.4213 39.1501 78.4693 37.9286 78.5287 37.9211C81.3633 37.5538 83.9206 34.7015 86.9404 37.3029ZM-5.54331 22.5982C-4.78274 22.7099 -4.39735 22.6517 -4.04656 22.737C-3.21561 22.9388 -2.40078 23.2086 -1.57966 23.4508C-2.2073 24.1897 -2.77241 24.9998 -3.49286 25.6346C-3.79763 25.9028 -4.42763 25.808 -4.91173 25.8658C-6.78049 26.0892 -7.14544 25.681 -6.67117 23.7587C-6.5587 23.3041 -6.18707 22.9136 -5.54331 22.5982ZM83.713 -1.46724L82.4943 -0.764093L82.4719 -2.07246C82.9682 -1.91831 83.4644 -1.76454 83.713 -1.46724Z" fill="#FFFF00"/>
<path d="M29.4772 54.5915C26.8133 53.91 24.1265 53.652 23.2657 51.1143C22.3942 48.546 22.1378 45.7629 21.7111 43.058C21.6553 42.7029 22.1858 42.255 22.4445 41.85C22.6467 42.1996 22.9027 42.5291 23.0415 42.9023C23.7958 44.9299 24.3782 47.039 25.3256 48.9699C25.7125 49.7596 26.825 50.25 27.6886 50.7309C28.2593 51.0483 29.0155 51.0176 29.6184 51.2952C32.4254 52.5875 34.9974 52.311 37.4285 50.3703C37.8245 50.0545 38.4738 50.0553 39.0058 49.9098C38.8202 50.5162 38.8238 51.3841 38.414 51.6806C37.13 52.6083 35.7654 53.5344 34.2887 54.0539C32.9107 54.5388 31.3491 54.503 29.4772 54.5915ZM39.7927 34.1067C39.5084 33.0594 39.3676 32.2596 39.2268 31.4601C39.9862 31.5875 40.9489 31.4774 41.4519 31.9056C42.0213 32.3905 42.6576 33.7185 42.4146 34.041C41.9207 34.697 40.9363 35.7993 39.7927 34.1067ZM31.016 33.223C29.7442 33.9946 29.2975 33.4153 29.0096 32.5919C28.5939 31.4026 29.0135 30.508 30.1961 30.1112C30.4387 30.0294 31.0423 30.3979 31.1615 30.6893C31.5021 31.5191 32.93 32.3174 31.016 33.223ZM32.8415 44.3928C31.0998 45.7566 30.4151 44.6153 30.0997 43.4702C29.9971 43.0958 30.9177 42.036 31.46 41.964C33.1522 41.7394 33.2096 43.001 32.8415 44.3928Z" fill="#FFFF00"/>
</svg>
