<svg width="113" height="113" viewBox="0 0 113 113" fill="none" xmlns="http://www.w3.org/2000/svg">
<path d="M63.7928 43.5359C70.8149 46.6053 77.6823 49.4821 84.512 52.4476C85.2721 52.7778 86.4201 53.7283 86.3327 54.1871C86.1592 55.0953 85.4236 56.1743 84.6129 56.6352C78.9938 59.8297 73.2645 62.8271 67.6346 66.0032C64.22 67.9295 60.9907 70.199 57.52 72.0072C56.6383 72.4666 55.1534 71.7543 53.9455 71.5804C54.1853 70.7308 54.1586 69.4304 54.7065 69.1029C59.2025 66.415 63.7898 63.8795 68.3811 61.3562C71.5238 59.6293 74.7965 58.129 77.8594 56.2738C79.8399 55.0744 79.7294 53.5664 77.4432 52.7054C70.8532 50.223 64.2344 47.8174 57.6366 45.3557C56.7792 45.0358 55.8305 44.7213 55.193 44.1172C54.5875 43.5437 54.3353 42.5934 53.9277 41.8087C55.0575 41.5444 56.2827 40.8653 57.2972 41.1015C59.4652 41.6062 61.5239 42.5849 63.7928 43.5359Z" fill="#7BECAB" fill-opacity="0.78"/>
<path d="M43.2757 53.5228C43.699 52.6905 44.4804 51.3576 44.8461 51.4644C47.7775 52.3212 50.7278 53.2464 53.4694 54.5745C55.0104 55.321 55.5068 56.7915 53.4826 58.0345C50.5678 59.8239 47.7577 61.7874 44.8156 63.5275C44.3869 63.781 43.4017 63.3229 42.8301 62.9509C42.6515 62.8345 42.7922 61.7049 43.1183 61.4078C44.6791 59.9862 46.3574 58.6956 47.9845 57.347C48.2587 57.1195 48.4864 56.8355 48.7357 56.5776C48.1756 56.1696 47.6546 55.6854 47.0471 55.3701C45.8709 54.7596 44.6459 54.2441 43.2757 53.5228Z" fill="#FFFF00"/>
<path d="M26.8964 51.3598C27.2851 50.7521 27.8641 50.1509 28.034 50.251C30.9612 51.9792 33.9426 53.6547 36.6402 55.704C37.1965 56.1263 37.0145 58.8872 36.5574 59.0779C34.1186 60.0955 31.5061 60.7521 28.9003 61.2539C28.3649 61.3571 27.6027 60.2701 26.9452 59.7315C27.4567 59.1841 27.9011 58.5374 28.504 58.1252C28.8938 57.8586 29.5639 58.0429 30.0225 57.8338C30.7817 57.4876 31.4718 56.9872 32.1909 56.5517C31.4045 56.1528 30.6323 55.4498 29.8286 55.4111C27.313 55.2898 26.7503 53.8255 26.8964 51.3598Z" fill="#074942"/>
</svg>
