<svg width="47" height="55" viewBox="0 0 47 55" fill="none" xmlns="http://www.w3.org/2000/svg">
<path d="M14.8212 11.2666C17.8744 11.2666 20.3495 8.79279 20.3495 5.7412C20.3495 2.68962 17.8744 0.21582 14.8212 0.21582C11.7681 0.21582 9.29297 2.68962 9.29297 5.7412C9.29297 8.79279 11.7681 11.2666 14.8212 11.2666Z" fill="#FFFF00"/>
<path d="M6.23529 54.3584C9.28847 54.3584 11.7636 51.8846 11.7636 48.833C11.7636 45.7814 9.28847 43.3076 6.23529 43.3076C3.18212 43.3076 0.707031 45.7814 0.707031 48.833C0.707031 51.8846 3.18212 54.3584 6.23529 54.3584Z" fill="#7BECAB" fill-opacity="0.78"/>
<path d="M41.0146 28.8486C44.0678 28.8486 46.5428 26.3748 46.5428 23.3232C46.5428 20.2716 44.0678 17.7979 41.0146 17.7979C37.9614 17.7979 35.4863 20.2716 35.4863 23.3232C35.4863 26.3748 37.9614 28.8486 41.0146 28.8486Z" fill="#FFFF00"/>
</svg>
