<svg width="44" height="44" viewBox="0 0 44 44" fill="none" xmlns="http://www.w3.org/2000/svg">
<path d="M32.0625 43.0687H11.9375C5.6125 43.0687 0.4375 37.9004 0.4375 31.5837V11.485C0.4375 5.16824 5.6125 0 11.9375 0H32.0625C38.3875 0 43.5625 5.16824 43.5625 11.485V31.5837C43.5625 37.9004 38.3875 43.0687 32.0625 43.0687Z" fill="#074942"/>
<path d="M31.5513 11.7701C30.3593 10.5699 28.9404 9.61853 27.3773 8.97131C25.8141 8.32409 24.1377 7.99396 22.4456 8.00008C20.1837 8.00229 17.9619 8.59841 16.0029 9.72872C14.0439 10.859 12.4165 12.4839 11.2836 14.4405C10.1507 16.3972 9.55207 18.617 9.54768 20.8775C9.5433 23.1382 10.1333 25.3602 11.2586 27.3213L9.4375 34L16.2668 32.2125C18.1525 33.261 20.2715 33.8198 22.4294 33.8375C25.8598 33.8377 29.1513 32.4836 31.5874 30.0701C34.0237 27.6568 35.4074 24.3794 35.4375 20.9513C35.4261 19.2407 35.0769 17.5491 34.41 15.9736C33.7432 14.3981 32.7716 12.9696 31.5513 11.7701ZM22.4456 31.6113C20.5232 31.6126 18.6359 31.0961 16.9822 30.1163L16.592 29.8725L12.5432 30.945L13.6164 26.9963L13.3562 26.59C11.9729 24.3584 11.4566 21.6972 11.9052 19.1105C12.3538 16.5239 13.7361 14.1916 15.7902 12.5553C17.8443 10.919 20.4276 10.0925 23.0507 10.2323C25.6738 10.3721 28.1546 11.4685 30.0229 13.3138C32.0651 15.3096 33.2342 18.032 33.2749 20.8863C33.2492 23.7396 32.0968 26.4673 30.0687 28.476C28.0408 30.4845 25.3009 31.6114 22.4456 31.6113ZM28.3155 23.5838C27.9903 23.4213 26.4131 22.6413 26.1204 22.5438C25.8277 22.4463 25.6001 22.3813 25.3887 22.7063C25.0707 23.142 24.7286 23.5596 24.3643 23.9575C24.1855 24.185 23.9903 24.2013 23.6651 23.9575C21.811 23.2253 20.2663 21.8766 19.2912 20.1388C18.9497 19.5701 19.6164 19.6026 20.2342 18.3838C20.2799 18.2959 20.3037 18.1984 20.3037 18.0994C20.3037 18.0005 20.2799 17.903 20.2342 17.8151C20.2342 17.6525 19.5025 16.0601 19.2424 15.4263C18.9822 14.7926 18.7221 14.8901 18.5107 14.8738H17.8765C17.7122 14.8763 17.5503 14.9139 17.4017 14.9839C17.2531 15.054 17.1212 15.1549 17.0147 15.2801C16.6499 15.6346 16.3653 16.0632 16.1802 16.5369C15.9951 17.0106 15.9137 17.5185 15.9416 18.0263C16.0435 19.242 16.5016 20.4006 17.2586 21.3576C18.6443 23.4307 20.5434 25.1101 22.7708 26.2325C23.9391 26.9141 25.2968 27.1991 26.6408 27.045C27.0882 26.9563 27.5121 26.7745 27.8847 26.5112C28.2573 26.2481 28.5703 25.9095 28.8034 25.5175C29.0193 25.0391 29.0873 24.5073 28.9985 23.99C28.8521 23.8275 28.6408 23.7463 28.3155 23.5838Z" fill="white"/>
</svg>
