<svg width="46" height="46" viewBox="0 0 46 46" fill="none" xmlns="http://www.w3.org/2000/svg">
<g clip-path="url(#clip0_32_110)">
<path d="M35.6132 0.0732422H10.3868C4.65034 0.0732422 0 4.72359 0 10.4601V35.4744C0 41.2109 4.65034 45.8612 10.3868 45.8612H35.6132C41.3497 45.8612 46 41.2109 46 35.4744V10.4601C46 4.72359 41.3497 0.0732422 35.6132 0.0732422Z" fill="#074942"/>
<path d="M29.0858 13.4014H32.3309L25.2414 21.5053L33.5816 32.5318H27.0508L21.936 25.8447L16.0827 32.5318H12.8357L20.4186 23.8646L12.418 13.4014H19.114L23.7374 19.5143L29.0858 13.4014ZM27.9466 30.5894H29.7452L18.1374 15.2423H16.2076L27.9466 30.5894Z" fill="white"/>
</g>
<defs>
<clipPath id="clip0_32_110">
<rect width="46" height="45.788" fill="white" transform="translate(0 0.0732422)"/>
</clipPath>
</defs>
</svg>
