<svg width="53" height="53" viewBox="0 0 53 53" fill="none" xmlns="http://www.w3.org/2000/svg">
<path d="M22.5329 29.5604C21.7838 30.649 21.6363 31.9746 22.2184 32.7206C22.2539 32.7661 22.706 32.6276 22.762 32.4914C23.0566 31.7745 23.2744 31.0262 23.5476 30.2998C23.6069 30.1423 23.7842 30.0295 23.9071 29.8961C24.0077 30.1078 24.2198 30.3407 24.1845 30.5268C24.1192 30.8723 23.9044 31.1882 23.7608 31.5203C22.6422 34.1065 21.0407 36.4287 19.7359 38.9127C19.5203 39.3231 19.4018 39.7866 19.171 40.1865C18.9448 40.5782 19.1393 41.514 18.0965 41.0405C17.9571 40.9772 17.4017 41.8579 17.0243 42.2883C16.6174 42.7523 16.1934 43.201 15.777 43.6563C15.6829 43.0464 15.5445 42.4396 15.5029 41.8262C15.363 39.7641 15.9894 37.8181 16.4105 35.8342C16.7706 34.1374 16.915 32.4057 17.4774 30.7371C17.905 29.4684 16.9992 28.4749 16.2986 27.5691C15.7812 26.9003 14.9966 26.4398 14.3367 25.8798C14.1669 25.7356 13.9579 25.5929 13.8723 25.4022C13.5948 24.7841 12.3879 25.8267 12.4546 24.5556C12.4842 23.9941 12.2467 23.4204 12.1454 22.8496C11.9955 22.0057 12.2984 21.6765 13.1032 21.4924C14.9446 21.0712 16.807 21.2143 18.6644 21.1555C19.5145 21.1286 20.4297 21.108 21.1841 20.781C21.7434 20.5386 22.3605 19.8623 22.4806 19.2816C22.7947 17.7623 23.5494 16.4655 24.2221 15.128C25.1398 13.3037 25.7103 11.3711 26.2182 9.41047C26.2709 9.20701 26.272 8.98369 26.3574 8.7973C26.4231 8.65438 26.5839 8.55513 26.7024 8.43652C26.7649 8.56515 26.8179 8.69954 26.8913 8.82162C27.7315 10.2194 28.148 11.7635 28.6007 13.3192C29.1333 15.1495 29.9226 16.9056 30.6239 18.6846C30.6976 18.8713 30.9285 18.9956 31.0865 19.149C31.0749 18.9184 31.0334 18.6844 31.06 18.4585C31.0858 18.2398 31.1789 18.0285 31.248 17.8158C31.2799 17.7178 31.325 17.6242 31.3642 17.5285C31.4368 17.6327 31.5493 17.7277 31.5756 17.8425C31.8099 18.8661 32.0066 19.8989 32.27 20.9146C32.3262 21.1313 32.6081 21.2894 32.786 21.4745C32.8316 21.2697 32.9639 21.0362 32.9076 20.8648C32.6497 20.0781 33.4093 20.1173 33.731 19.9002C34.2797 19.5299 34.9853 19.3926 35.5343 19.0226C36.0355 18.6847 35.8286 19.1814 35.9535 19.2464C36.2599 19.4057 36.6724 19.5452 36.9873 19.4682C37.89 19.2474 38.757 18.8837 39.6562 18.644C39.9694 18.5605 40.4477 18.5517 40.6466 18.7331C40.8573 18.9253 40.9113 19.3909 40.885 19.7254C40.7449 21.512 39.6651 22.7305 38.4255 23.9116C36.2247 26.0087 34.0906 28.1788 32.4938 30.8079C32.3717 31.009 32.0757 31.1205 31.8407 31.232C31.6059 31.3434 31.1831 31.9358 31.2372 31.0376C31.2527 30.7812 31.1524 30.5179 31.1053 30.2577L30.6313 30.4544C30.8199 30.0912 29.9927 29.8809 30.5316 29.3741C30.8188 29.1041 30.7927 28.4986 30.8952 28.0418C30.8976 28.0313 30.6978 27.941 30.6759 27.9648C30.3174 28.3565 29.7713 28.622 29.8977 29.3214C30.0659 30.2515 29.4962 31.3449 30.5519 32.0865C30.6587 32.1616 30.6692 32.6157 30.5606 32.7163C29.9491 33.2815 30.3196 33.981 30.2518 34.6093C30.0935 36.0752 30.1503 37.4603 31.9465 37.954C32.5858 38.1296 31.9583 38.4215 31.9222 38.4252C31.584 38.4598 31.1938 38.5485 30.9076 38.4211C30.1153 38.0685 29.9613 38.0986 29.9127 38.8951C29.8787 39.4522 29.9257 40.0143 29.8975 40.5722C29.8845 40.8279 29.8279 41.1097 29.6972 41.3216C29.6011 41.4775 29.3525 41.539 29.172 41.6426C29.0816 41.4766 28.949 41.3204 28.9077 41.1431C28.67 40.1204 28.4482 39.0938 28.2351 38.0657C28.1911 37.8536 28.2784 37.5869 28.1803 37.4186C27.8812 36.9056 27.5212 36.4283 27.1851 35.9371C26.3686 36.4626 27.657 36.9322 27.1412 37.5312C26.8898 37.7399 26.7152 37.8569 26.5634 37.9984C26.5434 38.017 26.6405 38.1614 26.6834 38.2474C26.8301 38.1266 26.9873 38.0159 27.1188 37.8801C27.18 37.8169 27.1911 37.705 27.225 37.6152C27.7855 38.6497 27.9175 39.773 27.8917 40.9241C27.8807 41.4173 27.755 41.9599 28.5739 41.8365C28.6116 41.8308 28.7564 42.1352 28.7468 42.2886C28.7095 42.878 28.6519 43.4684 28.554 44.0503C28.5177 44.2661 28.3492 44.4596 28.241 44.6631C28.0264 44.5077 27.6331 44.36 27.626 44.1957C27.5749 43.0014 26.8596 42.0411 26.5592 40.9429C25.8316 38.2833 25.1274 35.6173 24.4134 32.954C24.3461 32.7029 24.2378 32.4549 24.2212 32.2006C24.2081 32.0019 24.3078 31.7958 24.3573 31.593C24.5478 31.6593 24.7778 31.679 24.9208 31.801C25.2582 32.0894 25.4294 32.5873 25.5985 31.6249C25.7754 30.6178 25.7775 29.729 25.6573 28.6989C25.5114 27.4488 24.8197 26.1829 25.4839 24.7708C25.8493 23.994 25.5352 22.9027 25.5636 21.9543C25.5682 21.8019 25.7624 21.6551 25.8689 21.5057C25.9858 21.6447 26.2145 21.7947 26.2022 21.9213C26.0872 23.1031 26.2877 24.2699 25.9673 25.491C25.703 26.4981 26.1588 27.6983 26.314 28.8103C26.3644 29.1715 26.4767 29.5239 26.5531 29.882C26.5973 30.0886 26.6263 30.2986 26.6622 30.5071C26.7803 30.317 26.9352 30.1399 27.0079 29.9338C27.1117 29.6397 27.256 29.3071 27.2069 29.0213C27.0295 27.9894 26.7108 26.9783 26.5841 25.9424C26.5243 25.4513 26.8562 24.9248 26.8753 24.4093C26.9354 22.7937 26.635 21.2272 26.265 19.6513C26.0786 18.8572 26.0647 17.9472 26.5384 17.1119C27.1795 15.981 27.26 14.7779 27.1326 13.4417C27.0388 12.4585 27.2439 11.4291 26.8851 10.4473C26.8448 10.337 26.7394 10.2504 26.6642 10.1529C26.6277 10.2493 26.5543 10.3487 26.5614 10.4419C26.5858 10.7609 26.6257 11.0803 26.6884 11.3938C26.707 11.4868 26.8943 11.615 26.8792 11.6358C26.106 12.6987 26.7446 13.9239 26.4809 15.0469C26.2401 16.072 26.0645 17.1133 25.8893 18.1525C25.7474 18.993 25.8632 19.956 25.4853 20.6608C24.7373 22.0557 24.8969 23.4937 24.8899 24.9378C24.8861 25.7148 24.8228 26.4351 24.2397 27.0201C24.0929 27.1674 23.8852 27.3665 23.8909 27.5354C23.9322 28.7275 23.2258 29.6089 22.6168 30.5673C22.5329 30.2876 22.5329 30.0079 22.6168 29.6444C23.0152 28.5739 23.3268 27.5866 23.6457 26.6014C23.9738 25.5873 24.316 24.5758 24.2037 23.4847C24.1938 23.3888 24.1133 23.3002 24.0656 23.2083C24.0016 23.277 23.9053 23.3351 23.8784 23.4162C23.5358 24.4475 23.3 25.5278 22.8415 26.5035C22.3633 27.5209 22.6337 28.5445 22.5329 29.5604ZM30.2413 19.6597L29.9308 19.6352C30.0343 19.6993 30.1378 19.7634 30.2413 19.9954L30.552 20.02C30.4483 19.9559 30.3449 19.8917 30.2413 19.6597ZM35.7713 23.5194L35.7468 23.8303C35.8108 23.7267 35.8748 23.623 36.1064 23.5194L36.131 23.2083C36.0669 23.312 36.0029 23.4157 35.7713 23.5194ZM28.9007 21.3379L28.8092 20.9106L28.5902 20.9777C28.6937 21.1536 28.7972 21.3296 28.9007 21.6734C28.9007 22.4958 28.8929 23.3182 28.9095 24.1402C28.9118 24.2611 29.0303 24.3796 29.0953 24.4992C29.134 24.4605 29.2096 24.4178 29.206 24.3836C29.1057 23.4241 29.582 22.4022 28.9007 21.3379ZM28.0629 26.8755C28.7896 26.3574 28.7617 25.5612 28.444 24.9591C27.8511 23.8359 27.943 22.6736 27.8841 21.4958C27.8222 20.2544 27.6762 19.0172 27.5499 17.7798C27.542 17.7029 27.3371 17.5656 27.3072 17.5852C27.1697 17.6743 26.9541 17.8152 26.9602 17.9269C27.0277 19.1597 26.9368 20.4466 27.2706 21.6087C27.7716 23.3525 27.3339 25.1676 27.7277 26.8755L27.7032 27.1865C27.7672 27.0828 27.8312 26.9792 28.0629 26.8755ZM19.0139 29.2248C19.0697 29.6486 19.2522 30.1027 19.1596 30.4912C18.7469 32.2238 18.4889 33.9668 18.506 35.7503C18.5085 36.0148 18.4346 36.2795 18.408 36.5452C18.3275 37.3511 18.2422 38.1569 18.1893 38.9647C18.1825 39.0681 18.3569 39.1835 18.4474 39.2932C18.5804 39.1702 18.8054 39.0634 18.8306 38.9212C18.9518 38.2367 18.8976 37.4979 19.1319 36.8619C19.5649 35.6863 19.9051 34.4959 20.2498 33.2957C20.5112 32.3851 20.4101 31.7357 20.0847 30.9164C19.8066 30.2163 19.0511 29.4712 19.8302 28.5892C19.9194 28.4883 19.7597 27.9476 19.6332 27.9131C19.0987 27.7674 19.2278 28.2131 19.1685 28.5232C19.1214 28.7686 18.9581 28.9918 18.6787 29.2248L18.5447 29.7618L18.7636 29.8109C18.7912 29.6156 18.8187 29.4202 19.0139 29.2248ZM39.4579 21.8413C39.5757 21.6115 39.7609 21.3911 39.7946 21.1495C39.8394 20.8294 39.8745 20.2809 39.7226 20.2027C39.2551 19.9618 39.0253 20.2898 38.8354 20.7608C38.4542 21.7068 37.8469 22.5043 37.1018 23.229C36.415 23.897 35.8731 24.7148 35.269 25.4679C35.0849 25.6975 34.9062 25.9314 34.725 26.1633C34.571 25.8928 34.4065 25.6276 34.2676 25.3495C34.1993 25.2128 34.1786 25.0523 34.1364 24.9027C33.9789 25.0331 33.7654 25.1345 33.6794 25.3016C33.5877 25.4797 33.5595 25.7325 33.6027 25.9309C33.7965 26.8186 33.2911 27.3436 32.744 27.9321C32.292 28.4183 31.9998 29.0601 31.6831 29.6576C31.6406 29.7378 31.8625 29.9684 31.9839 30.1106C31.9965 30.1254 32.186 30.033 32.2483 29.9545C34.4507 27.1771 36.7181 24.4578 39.4579 21.8413ZM24.2086 16.3036C24.097 16.9242 23.941 17.5407 23.884 18.1663C23.8015 19.0718 24.0336 19.9071 23.0004 20.6578C22.116 21.3004 22.5675 22.6821 22.5481 23.7487C22.5455 23.8941 22.748 24.0431 22.8556 24.1906C22.9714 24.0516 23.168 23.9246 23.1908 23.7717C23.4529 22.0167 24.9254 20.584 24.555 18.6587C24.543 18.5963 24.751 18.5108 24.7654 18.4214C24.9254 17.4285 25.0789 16.4341 25.2041 15.4363C25.2286 15.2413 25.1244 15.0302 25.0796 14.8265C24.901 15.0082 24.6726 15.1634 24.5576 15.379C24.4395 15.6005 24.4321 15.881 24.2086 16.3036ZM20.3544 26.5399C20.5221 26.3953 20.8217 26.2617 20.8348 26.1042C20.8975 25.3504 20.7022 24.5669 21.4996 24.0043C21.7379 23.8362 21.7712 23.3489 21.8507 22.9969C21.8808 22.8637 21.776 22.7 21.7327 22.5502C21.6537 22.6041 21.5657 22.6487 21.4974 22.7139C21.2952 22.9066 20.9849 23.077 20.9236 23.3107C20.6696 24.2779 20.3537 24.7526 19.357 23.9215C19.0903 23.699 18.4596 23.9742 18.0671 23.8287C17.5387 23.6325 16.6696 24.4652 16.4657 23.3169C16.3654 23.3543 16.1907 23.3735 16.1764 23.4321C15.9845 24.2168 16.73 24.9416 17.4825 24.7173C18.8122 24.3208 19.6859 24.4821 20.0873 25.2934C20.2525 25.6272 20.4974 26.1659 19.7021 26.2229C19.5199 26.2359 19.3546 26.4824 19.1815 26.6216C19.3191 26.7881 19.4726 27.1017 19.591 27.089C19.8008 27.0664 19.9895 26.8456 20.3544 26.5399ZM20.5221 28.7214C20.1027 29.2995 20.2853 29.8815 20.5277 30.4533C20.5976 30.6181 20.7363 30.7538 20.8434 30.9029C20.9598 30.763 21.184 30.6151 21.1744 30.4844C21.1211 29.7556 21.5062 29.1648 21.6804 28.5121C21.9948 27.3337 22.0433 26.0837 22.1913 24.8624C22.2021 24.7728 22.1195 24.672 22.0804 24.5764C21.962 24.6615 21.7881 24.7218 21.7368 24.8368C21.6321 25.0717 21.6418 25.3631 21.5188 25.5833C21.0673 26.3915 21.6038 27.7349 20.2069 28.03C20.3119 28.1486 20.4171 28.2672 20.5221 28.7214ZM17.3381 36.6083C17.2275 36.6083 17.0244 36.5885 17.0195 36.6112C16.7243 37.9866 16.436 39.3637 16.1778 40.7465C16.1476 40.909 16.292 41.1041 16.3555 41.2841C16.5119 41.1275 16.7724 40.9915 16.8083 40.8108C17.0743 39.4724 17.7631 38.2041 17.3381 36.6083ZM33.5928 22.6803L32.7985 21.8413C32.6165 22.1478 32.4242 22.4491 32.2556 22.7629C32.1245 23.0069 32.0228 23.2666 31.908 23.5194C31.7993 23.2605 31.7129 22.9886 31.5721 22.7488C31.5069 22.6377 31.3304 22.523 31.2137 22.5319C31.1066 22.5402 30.9437 22.7 30.9232 22.8141C30.8241 23.3641 31.4091 24.1114 32.0336 24.1783C32.5046 24.2287 33.0885 24.3419 32.9509 23.4722C32.9226 23.2938 33.2576 23.0577 33.5928 22.6803ZM16.6679 25.533L15.978 25.2171C15.9286 25.3642 15.791 25.5818 15.8434 25.6478C16.4832 26.4518 17.1474 27.2366 17.8231 28.011C17.8551 28.0476 18.1632 27.9116 18.1603 27.8994C18.0643 27.4957 18.0014 27.069 17.8166 26.7053C17.603 26.2852 17.279 25.9214 16.6679 25.533ZM35.6037 21.3379L36.9019 20.2886C36.2675 19.8685 35.8418 20.4719 35.3246 20.6192C35.2316 20.6457 35.1703 20.7695 35.0831 20.8329C34.7386 21.0829 33.9915 20.3402 33.9872 21.2638C33.9869 21.3425 34.8231 21.4259 35.2712 21.5044C35.3246 21.5137 35.381 21.5057 35.6037 21.3379ZM20.3544 36.6083C20.7402 35.8864 21.2328 35.1982 21.4751 34.4309C21.6431 33.8988 21.4664 33.2574 21.4436 32.6649C21.2482 33.1341 21.0199 33.5929 20.8647 34.0751C20.6135 34.8554 20.4103 35.6512 20.3544 36.6083ZM30.744 26.2042C30.7999 25.7855 30.9436 25.354 30.886 24.9515C30.8323 24.5758 30.565 24.2308 30.3916 23.8723C30.2298 24.2472 30.0446 24.6141 29.9161 25.0001C29.8517 25.1933 30.3263 26.0862 30.744 26.2042ZM25.5492 34.0912L26.0062 35.8913C26.0773 35.2882 26.1646 34.6863 26.2137 34.0814C26.245 33.6971 26.2393 33.3064 26.2079 32.9222C26.198 32.8026 26.0495 32.6944 25.9645 32.581C25.8261 32.6961 25.6026 32.7902 25.5677 32.9312C25.5033 33.1915 25.5492 33.4793 25.5492 34.0912ZM15.6623 22.1769C15.3912 22.1769 15.1076 22.1258 14.8516 22.1881C14.395 22.2992 13.7802 21.8158 13.4839 22.5377C13.9557 22.6412 14.4299 22.8311 14.8984 22.8178C15.2131 22.809 15.5197 22.5125 15.6623 22.1769ZM28.9007 20.331C28.9007 19.6226 28.9194 18.9133 28.8845 18.2066C28.8777 18.0703 28.6608 17.9445 28.5409 17.8139C28.4374 17.9609 28.2262 18.127 28.2481 18.252C28.3802 19.0062 28.5656 19.7509 28.9007 20.331ZM27.225 31.4063L26.9673 30.9029C26.8298 31.019 26.5633 31.1542 26.5771 31.248C26.6365 31.6514 26.8228 32.0365 26.8792 32.4401C26.961 33.0255 26.9704 33.6211 27.0107 34.2123C27.0822 33.6099 27.1603 33.0082 27.2214 32.4047C27.2435 32.186 27.225 31.963 27.225 31.4063ZM19.0138 22.8481C19.606 22.8146 20.2016 22.8075 20.7873 22.7273C20.9185 22.7093 21.1322 22.402 21.0995 22.2875C21.0519 22.1203 20.763 21.8607 20.6684 21.8949C20.0473 22.1185 19.4508 22.4106 19.0138 22.8481ZM15.83 24.694C15.8252 23.835 14.9974 23.8763 14.5286 23.5368C14.4028 23.4457 14.1233 23.5677 13.9142 23.5919C14.0444 23.7857 14.1327 24.0457 14.313 24.1602C14.7395 24.4308 15.2099 24.6324 15.83 24.694ZM28.5656 31.4063C28.5656 31.6807 28.5568 31.9554 28.5703 32.2292C28.5751 32.3261 28.634 32.4204 28.6683 32.516C28.7458 32.4817 28.8808 32.4605 28.8919 32.4112C29.0175 31.8571 29.1322 31.2999 29.217 30.7386C29.2225 30.7025 28.8757 30.5418 28.8339 30.5829C28.7072 30.7075 28.6499 30.9029 28.5656 31.4063ZM34.5982 23.016C34.9194 22.96 35.2825 22.9787 35.5504 22.8279C35.8382 22.6659 36.2855 22.2354 36.2313 22.1118C35.9822 21.5431 35.7599 22.5107 35.3682 22.2113C35.2813 22.1448 34.8636 22.5125 34.5982 23.016ZM31.9171 26.7077C31.9552 26.7458 31.9882 26.7934 32.0334 26.8189C32.0612 26.8346 32.1311 26.8308 32.1424 26.812C32.2975 26.5532 32.4712 26.3011 32.5879 26.0251C32.6922 25.7785 32.7318 25.5044 32.7999 25.2425C32.5384 25.3625 32.2059 25.4222 32.0372 25.6212C31.8971 25.7865 31.9498 26.1156 31.9171 26.7077ZM29.9061 27.7145C29.8005 27.385 29.7071 27.0504 29.5763 26.7313C29.5562 26.6822 29.3632 26.7043 29.2503 26.6933C29.4096 27.091 28.7901 27.8096 29.9061 27.7145ZM29.9061 20.6666C29.9061 20.7779 29.863 20.9176 29.9141 20.9951C30.0891 21.261 30.2972 21.505 30.4926 21.7574C30.4709 21.4559 30.4824 21.1462 30.4127 20.8563C30.3794 20.7179 30.1916 20.6168 29.9061 20.6666ZM28.0629 35.2658C28.4907 35 28.5978 34.6816 28.2318 34.2772C28.1487 34.1853 28.0829 34.0776 28.0092 33.9773C27.9712 34.2953 27.9322 34.6131 27.8961 34.9313C27.8899 34.9862 27.8953 35.0424 28.0629 35.2658ZM17.5057 33.0844C17.5057 33.1944 17.4923 33.3063 17.5089 33.4137C17.5323 33.5657 17.5779 33.7142 17.614 33.8641C17.6896 33.825 17.8341 33.7775 17.8306 33.7482C17.7707 33.2643 17.6923 32.7828 17.6181 32.3006C17.5807 32.395 17.5368 32.4875 17.5084 32.5846C17.4935 32.6352 17.5057 32.6938 17.5057 33.0844ZM17.3381 34.259C17.2823 34.6673 17.2102 35.0742 17.1796 35.4843C17.1694 35.6223 17.2644 35.7682 17.3115 35.9104C17.3762 35.7394 17.4805 35.5721 17.4971 35.3966C17.5274 35.0759 17.5057 34.7503 17.3381 34.259ZM28.0629 28.5536C28.0247 28.7391 27.9102 28.9546 27.968 29.1026C28.0381 29.2822 28.2535 29.405 28.4062 29.5523C28.4594 29.3583 28.5468 29.1655 28.5538 28.9699C28.5588 28.8332 28.4539 28.6924 28.0629 28.5536ZM29.7386 37.9508C29.737 37.7271 29.7393 37.503 29.72 37.2807C29.7193 37.2714 29.4229 37.2714 29.422 37.2807C29.4026 37.503 29.405 37.7271 29.7386 37.9508ZM27.5601 15.6324L27.7549 16.7799C27.7836 16.3792 27.8153 15.9787 27.8357 15.5776C27.8375 15.5419 27.7654 15.5024 27.5601 15.6324ZM28.398 35.6015C28.3421 35.8417 28.2708 36.0799 28.2393 36.3233C28.2292 36.4021 28.3235 36.4943 28.37 36.5803C28.4352 36.4681 28.5315 36.3625 28.5577 36.2417C28.5905 36.0908 28.5656 35.9273 28.398 35.6015ZM19.0138 25.8687L19.0394 25.223L18.5184 25.3724L19.0138 25.8687ZM17.5057 22.0091C17.2658 21.9531 17.0279 21.8818 16.785 21.8502C16.7064 21.84 16.6142 21.9345 16.5282 21.9811C16.6404 22.0463 16.7458 22.1427 16.8665 22.169C17.0171 22.2018 17.1804 22.1769 17.5057 22.0091ZM37.447 21.17L37.0233 21.2588C37.043 21.3312 37.075 21.4679 37.0805 21.4668C37.2601 21.4319 37.4372 21.3839 37.447 21.17ZM34.0955 23.855L33.9614 24.0563C34.0621 24.0451 34.1625 24.0339 34.0955 23.855ZM39.9607 19.3242L40.1617 19.4584C40.1505 19.3577 40.1394 19.2571 39.9607 19.3242Z" fill="#FFFF00"/>
<path d="M25.2141 29.2244C25.2141 29.6126 25.2386 29.8364 25.2088 30.0527C25.156 30.4341 25.0703 30.811 24.9983 31.1898C24.8469 30.8119 24.6312 30.4453 24.5611 30.0528C24.4849 29.6256 24.5162 29.1721 24.5521 28.7342C24.5836 28.3507 24.6865 27.973 24.7579 27.5928C24.91 27.9705 25.0697 28.3455 25.2089 28.7279C25.2443 28.8252 25.2141 28.9464 25.2141 29.2244ZM22.4491 30.5669C22.5054 30.7623 22.4779 30.9577 22.4503 31.153L22.2312 31.1039C22.276 30.9249 22.3206 30.7459 22.4491 30.5669ZM19.4327 32.8323C19.3378 32.8155 19.3266 32.7148 19.3154 32.6141C19.3824 32.6589 19.4495 32.7036 19.4327 32.8323Z" fill="#FFFF00"/>
</svg>
